<?xml version="1.0" encoding="utf-8"?>
<!-- Generator: Adobe Illustrator 25.4.1, SVG Export Plug-In . SVG Version: 6.00 Build 0)  -->
<svg version="1.1" id="レイヤー_1" xmlns="http://www.w3.org/2000/svg" xmlns:xlink="http://www.w3.org/1999/xlink" x="0px"
	 y="0px" viewBox="0 0 273.5 859.8" style="enable-background:new 0 0 273.5 859.8;" xml:space="preserve">
<style type="text/css">
	.st0{fill:none;stroke:#FF0000;stroke-width:0.2835;stroke-linecap:round;stroke-miterlimit:11.3386;}
	.st1{fill:#FFFFFF;stroke:#FF0000;stroke-miterlimit:10;}
</style>
<path id="front_outsideCutPath" vector-effect="non-scaling-stroke" class="st0" d="M32.3,859.7v-7h20.8v7l0.1,0.1h32.1l0.1-0.1
	v-32.1l-0.1-0.1h-7v-20.8h7l0.1-0.1v-21.4l-0.1-0.1h-7v-20.8h7l0.1-0.1v-21.4l-0.1-0.1h-7v-20.8h7l0.1-0.1V700l-0.1-0.1h-7v-20.8h7
	l0.1-0.1v-21.4l-0.1-0.1h-7v-20.8h7l0.1-0.1V615l-0.1-0.1h-7v-20.8h7l0.1-0.1v-21.4l-0.1-0.1h-7v-20.8h7l0.1-0.1V530l-0.1-0.1h-7
	V509h7l0.1-0.1v-21.4l-0.1-0.1h-7v-20.8h7l0.1-0.1v-32.1l-0.1-0.1H53.3l-0.1,0.1v7H32.3v-7l-0.1-0.1H0.1L0,434.3v32.1l0.1,0.1h7
	v20.8h-7L0,487.4v21.4l0.1,0.1h7v20.8h-7L0,530v21.4l0.1,0.1h7v20.8h-7L0,572.5v21.4l0.1,0.1h7v20.8h-7L0,615v21.4l0.1,0.1h7v20.8
	h-7L0,657.5V679l0.1,0.1h7v20.8h-7L0,700v21.4l0.1,0.1h7v20.8h-7L0,742.6V764l0.1,0.1h7v20.8h-7L0,785.1v21.4l0.1,0.1h7v20.8h-7
	L0,827.6v32.1l0.1,0.1h32.1L32.3,859.7z"/>
<path id="left_outsideCutPath" vector-effect="non-scaling-stroke" class="st0" d="M126.3,859.7v-7h20.8v7l0.1,0.1h25l0.1-0.1v-31.8
	h7l0.1-0.1v-21.4l-0.1-0.1h-7v-20.8h7l0.1-0.1v-21.4l-0.1-0.1h-7v-20.8h7l0.1-0.1v-21.4l-0.1-0.1h-7v-20.8h7l0.1-0.1v-21.4l-0.1-0.1
	h-7v-20.8h7l0.1-0.1v-21.4l-0.1-0.1h-7v-20.8h7l0.1-0.1v-21.4l-0.1-0.1h-7v-20.8h7l0.1-0.1v-21.4l-0.1-0.1h-7v-20.8h7l0.1-0.1v-21.4
	l-0.1-0.1h-7v-20.8h7l0.1-0.1v-21.4l-0.1-0.1h-7v-31.8l-0.1-0.1h-25l-0.1,0.1v7h-20.8v-7l-0.1-0.1h-25l-0.1,0.1V466h-7l-0.1,0.1
	v21.4l0.1,0.1h7v20.8h-7l-0.1,0.1v21.4l0.1,0.1h7v20.8h-7l-0.1,0.1v21.4l0.1,0.1h7v20.8h-7l-0.1,0.1v21.4l0.1,0.1h7v20.8h-7
	l-0.1,0.1v21.4l0.1,0.1h7v20.8h-7l-0.1,0.1v21.4l0.1,0.1h7v20.8h-7l-0.1,0.1v21.4l0.1,0.1h7v20.8h-7l-0.1,0.1v21.4l0.1,0.1h7v20.8
	h-7l-0.1,0.1v21.4l0.1,0.1h7v31.8l0.1,0.1h25L126.3,859.7z"/>
<path id="top_outsideCutPath" vector-effect="non-scaling-stroke" class="st0" d="M241.6,859.7v-7h24.7l0.1-0.1v-24.7h7l0.1-0.1
	v-21.4l-0.1-0.1h-7v-24.7l-0.1-0.1h-24.7v-7l-0.1-0.1H220l-0.1,0.1v7h-24.7l-0.1,0.1v24.7h-7l-0.1,0.1v21.4l0.1,0.1h7v24.7l0.1,0.1
	h24.7v7l0.1,0.1h21.4L241.6,859.7z"/>
<path id="back_outsideCutPath" vector-effect="non-scaling-stroke" class="st0" d="M32.3,425.5v-7h20.8v7l0.1,0.1h32.1l0.1-0.1
	v-32.1l-0.1-0.1h-7v-20.8h7l0.1-0.1v-21.4l-0.1-0.1h-7V330h7l0.1-0.1v-21.4l-0.1-0.1h-7v-20.8h7l0.1-0.1v-21.4l-0.1-0.1h-7v-20.8h7
	l0.1-0.1v-21.4l-0.1-0.1h-7v-20.8h7l0.1-0.1v-21.4l-0.1-0.1h-7v-20.8h7l0.1-0.1v-21.4l-0.1-0.1h-7v-20.8h7l0.1-0.1V95.8l-0.1-0.1h-7
	V74.9h7l0.1-0.1V53.3l-0.1-0.1h-7V32.3h7l0.1-0.1V0.1L85.4,0H53.3l-0.1,0.1v7H32.3v-7L32.2,0H0.1L0,0.1v32.1l0.1,0.1h7v20.8h-7
	L0,53.3v21.4l0.1,0.1h7v20.8h-7L0,95.8v21.4l0.1,0.1h7v20.8h-7L0,138.3v21.4l0.1,0.1h7v20.8h-7L0,180.8v21.4l0.1,0.1h7v20.8h-7
	L0,223.4v21.4l0.1,0.1h7v20.8h-7L0,265.9v21.4l0.1,0.1h7v20.8h-7L0,308.4v21.4l0.1,0.1h7v20.8h-7L0,350.9v21.4l0.1,0.1h7v20.8h-7
	L0,393.4v32.1l0.1,0.1h32.1L32.3,425.5z"/>
<path id="right_outsideCutPath" vector-effect="non-scaling-stroke" class="st0" d="M126.3,425.5v-7h20.8v7l0.1,0.1h25l0.1-0.1
	v-31.8h7l0.1-0.1v-21.4l-0.1-0.1h-7v-20.8h7l0.1-0.1v-21.4l-0.1-0.1h-7v-20.8h7l0.1-0.1v-21.4l-0.1-0.1h-7v-20.8h7l0.1-0.1v-21.4
	l-0.1-0.1h-7v-20.8h7l0.1-0.1v-21.4l-0.1-0.1h-7v-20.8h7l0.1-0.1v-21.4l-0.1-0.1h-7v-20.8h7l0.1-0.1v-21.4l-0.1-0.1h-7V96.1h7
	l0.1-0.1V74.5l-0.1-0.1h-7V53.6h7l0.1-0.1V32l-0.1-0.1h-7V0.1L172.3,0h-25l-0.1,0.1v7h-20.8v-7L126.2,0h-25l-0.1,0.1v31.8h-7L94,32
	v21.4l0.1,0.1h7v20.8h-7L94,74.5V96l0.1,0.1h7v20.8h-7l-0.1,0.1v21.4l0.1,0.1h7v20.8h-7l-0.1,0.1V181l0.1,0.1h7V202h-7l-0.1,0.1
	v21.4l0.1,0.1h7v20.8h-7l-0.1,0.1v21.4l0.1,0.1h7V287h-7l-0.1,0.1v21.4l0.1,0.1h7v20.8h-7l-0.1,0.1v21.4l0.1,0.1h7V372h-7l-0.1,0.1
	v21.4l0.1,0.1h7v31.8l0.1,0.1h25L126.3,425.5z"/>
<path id="bottom_outsideCutPath" vector-effect="non-scaling-stroke" class="st0" d="M241.6,765.7v-7h24.7l0.1-0.1v-24.7h7l0.1-0.1
	v-21.4l-0.1-0.1h-7v-24.7l-0.1-0.1h-24.7v-7l-0.1-0.1H220l-0.1,0.1v7h-24.7l-0.1,0.1v24.7h-7l-0.1,0.1v21.4l0.1,0.1h7v24.7l0.1,0.1
	h24.7v7l0.1,0.1h21.4L241.6,765.7z"/>
<circle class="st1" cx="134.9" cy="36.6" r="7.1"/>
<circle class="st1" cx="135.4" cy="475.3" r="7.1"/>
</svg>
