0
SECTION
2
HEADER
9
$INSUNITS
70
4
0
ENDSEC
0
SECTION
2
TABLES
0
TABLE
2
LTYPE
0
LTYPE
72
65
70
64
2
CONTINUOUS
3
______
73
0
40
0
0
ENDTAB
0
TABLE
2
LAYER
0
ENDTAB
0
ENDSEC
0
SECTION
2
ENTITIES
0
LINE
8
front_outsideCutPath
10
0
20
83
11
0
21
63.25
0
LINE
8
front_outsideCutPath
10
0
20
63.25
11
2.45
21
63.25
0
LINE
8
front_outsideCutPath
10
2.45
20
63.25
11
2.45
21
49.75
0
LINE
8
front_outsideCutPath
10
2.45
20
49.75
11
0
21
49.75
0
LINE
8
front_outsideCutPath
10
0
20
49.75
11
0
21
36.25
0
LINE
8
front_outsideCutPath
10
0
20
36.25
11
2.45
21
36.25
0
LINE
8
front_outsideCutPath
10
2.45
20
36.25
11
2.45
21
22.75
0
LINE
8
front_outsideCutPath
10
2.45
20
22.75
11
0
21
22.75
0
LINE
8
front_outsideCutPath
10
0
20
22.75
11
0
21
9.25
0
LINE
8
front_outsideCutPath
10
0
20
9.25
11
0
21
3
0
LINE
8
front_outsideCutPath
10
0
20
3
11
12.75
21
3
0
LINE
8
front_outsideCutPath
10
12.75
20
3
11
12.75
21
5.45
0
LINE
8
front_outsideCutPath
10
12.75
20
5.45
11
26.25
21
5.45
0
LINE
8
front_outsideCutPath
10
26.25
20
5.45
11
26.25
21
3
0
LINE
8
front_outsideCutPath
10
26.25
20
3
11
39.75
21
3
0
LINE
8
front_outsideCutPath
10
39.75
20
3
11
39.75
21
5.45
0
LINE
8
front_outsideCutPath
10
39.75
20
5.45
11
53.25
21
5.45
0
LINE
8
front_outsideCutPath
10
53.25
20
5.45
11
53.25
21
3
0
LINE
8
front_outsideCutPath
10
53.25
20
3
11
66.75
21
3
0
LINE
8
front_outsideCutPath
10
66.75
20
3
11
66.75
21
5.45
0
LINE
8
front_outsideCutPath
10
66.75
20
5.45
11
80.25
21
5.45
0
LINE
8
front_outsideCutPath
10
80.25
20
5.45
11
80.25
21
3
0
LINE
8
front_outsideCutPath
10
80.25
20
3
11
93.75
21
3
0
LINE
8
front_outsideCutPath
10
93.75
20
3
11
93.75
21
5.45
0
LINE
8
front_outsideCutPath
10
93.75
20
5.45
11
107.25
21
5.45
0
LINE
8
front_outsideCutPath
10
107.25
20
5.45
11
107.25
21
3
0
LINE
8
front_outsideCutPath
10
107.25
20
3
11
120
21
3
0
LINE
8
front_outsideCutPath
10
120
20
3
11
120
21
22.75
0
LINE
8
front_outsideCutPath
10
120
20
22.75
11
117.55
21
22.75
0
LINE
8
front_outsideCutPath
10
117.55
20
22.75
11
117.55
21
36.25
0
LINE
8
front_outsideCutPath
10
117.55
20
36.25
11
120
21
36.25
0
LINE
8
front_outsideCutPath
10
120
20
36.25
11
120
21
49.75
0
LINE
8
front_outsideCutPath
10
120
20
49.75
11
117.55
21
49.75
0
LINE
8
front_outsideCutPath
10
117.55
20
49.75
11
117.55
21
63.25
0
LINE
8
front_outsideCutPath
10
117.55
20
63.25
11
120
21
63.25
0
LINE
8
front_outsideCutPath
10
120
20
63.25
11
120
21
76.75
0
LINE
8
front_outsideCutPath
10
120
20
76.75
11
120
21
83
0
LINE
8
front_outsideCutPath
10
120
20
83
11
107.25
21
83
0
LINE
8
front_outsideCutPath
10
107.25
20
83
11
107.25
21
80.55
0
LINE
8
front_outsideCutPath
10
107.25
20
80.55
11
93.75
21
80.55
0
LINE
8
front_outsideCutPath
10
93.75
20
80.55
11
93.75
21
83
0
LINE
8
front_outsideCutPath
10
93.75
20
83
11
80.25
21
83
0
LINE
8
front_outsideCutPath
10
80.25
20
83
11
80.25
21
80.55
0
LINE
8
front_outsideCutPath
10
80.25
20
80.55
11
66.75
21
80.55
0
LINE
8
front_outsideCutPath
10
66.75
20
80.55
11
66.75
21
83
0
LINE
8
front_outsideCutPath
10
66.75
20
83
11
53.25
21
83
0
LINE
8
front_outsideCutPath
10
53.25
20
83
11
53.25
21
80.55
0
LINE
8
front_outsideCutPath
10
53.25
20
80.55
11
39.75
21
80.55
0
LINE
8
front_outsideCutPath
10
39.75
20
80.55
11
39.75
21
83
0
LINE
8
front_outsideCutPath
10
39.75
20
83
11
26.25
21
83
0
LINE
8
front_outsideCutPath
10
26.25
20
83
11
26.25
21
80.55
0
LINE
8
front_outsideCutPath
10
26.25
20
80.55
11
12.75
21
80.55
0
LINE
8
front_outsideCutPath
10
12.75
20
80.55
11
12.75
21
83
0
LINE
8
front_outsideCutPath
10
12.75
20
83
11
0
21
83
0
LINE
8
front_labelLayer
10
46.7460937
20
45.5197006
11
46.7460937
21
44.5118881
0
LINE
8
front_labelLayer
10
46.7460937
20
44.5118881
11
44.5664062
21
44.5118881
0
LINE
8
front_labelLayer
10
44.5664062
20
44.5118881
11
44.5664062
21
36.9572006
0
LINE
8
front_labelLayer
10
44.5664062
20
36.9572006
11
43.2695312
21
36.9572006
0
LINE
8
front_labelLayer
10
43.2695312
20
36.9572006
11
43.2695312
21
44.5118881
0
LINE
8
front_labelLayer
10
43.2695312
20
44.5118881
11
41.7382812
21
44.5118881
0
LINE
8
front_labelLayer
10
41.7382812
20
44.5118881
11
41.7382812
21
45.0978256
0
LINE
8
front_labelLayer
10
41.7382812
20
45.0978256
11
43.2695312
21
45.5665756
0
LINE
8
front_labelLayer
10
43.2695312
20
45.5665756
11
43.2695312
21
46.0431381
0
LINE
8
front_labelLayer
10
47.6210937
20
48.9259506
11
47.2851562
21
47.8868881
0
LINE
8
front_labelLayer
10
44.5664062
20
46.0743881
11
44.5664062
21
45.5197006
0
LINE
8
front_labelLayer
10
44.5664062
20
45.5197006
11
46.7460937
21
45.5197006
0
ARC
8
front_labelLayer
10
48.5253247
20
46.1035605
40
5.2561408
50
167.5776172
51
180.6586624
0
ARC
8
front_labelLayer
10
46.0537086
20
46.6797966
40
2.7186086
50
141.7433936
51
168.2322161
0
ARC
8
front_labelLayer
10
45.6512815
20
46.8898326
40
2.2741143
50
98.2551559
51
139.620331
0
ARC
8
front_labelLayer
10
46.0046198
20
45.2575413
40
3.9419123
50
89.669706
51
99.9314304
0
ARC
8
front_labelLayer
10
46.0056044
20
45.0232213
40
4.1762233
50
81.5640647
51
89.7017457
0
ARC
8
front_labelLayer
10
45.7120033
20
42.9748926
40
6.2454708
50
75.9739961
51
81.6564686
0
ARC
8
front_labelLayer
10
45.2082033
20
40.8852287
40
8.3949538
50
73.2963503
51
76.0946352
0
ARC
8
front_labelLayer
10
45.3350337
20
41.8987709
40
6.2976603
50
71.9613634
51
76.5918041
0
ARC
8
front_labelLayer
10
45.8236364
20
43.971466
40
4.1681641
50
76.5183113
51
83.0217261
0
ARC
8
front_labelLayer
10
45.9938131
20
45.3400328
40
2.7890612
50
83.0760593
51
89.7926562
0
ARC
8
front_labelLayer
10
45.9882145
20
46.3801656
40
1.7489804
50
89.48594
51
103.4197374
0
ARC
8
front_labelLayer
10
45.8305308
20
46.9859702
40
1.1231938
50
102.7677284
51
144.3380381
0
ARC
8
front_labelLayer
10
46.1481998
20
46.7815803
40
1.5005723
50
145.0689034
51
162.1801816
0
ARC
8
front_labelLayer
10
47.2373612
20
46.415132
40
2.6496677
50
161.8437745
51
171.7847177
0
ARC
8
front_labelLayer
10
49.0138399
20
46.1483106
40
4.4460553
50
171.6527938
51
178.438324
0
ARC
8
front_labelLayer
10
50.689106
20
46.0768704
40
6.1227002
50
178.1972851
51
180.023229
0
LINE
8
front_labelLayer
10
53.2382812
20
45.5822006
11
53.0585937
21
44.3790756
0
LINE
8
front_labelLayer
10
49.6054687
20
41.5509506
11
49.6054687
21
36.9572006
0
LINE
8
front_labelLayer
10
49.6054687
20
36.9572006
11
48.3085937
21
36.9572006
0
LINE
8
front_labelLayer
10
48.3085937
20
36.9572006
11
48.3085937
21
45.5197006
0
LINE
8
front_labelLayer
10
48.3085937
20
45.5197006
11
49.3789062
21
45.5197006
0
LINE
8
front_labelLayer
10
49.3789062
20
45.5197006
11
49.5273437
21
43.9337631
0
LINE
8
front_labelLayer
10
49.5273437
20
43.9337631
11
49.5898437
21
43.9337631
0
ARC
8
front_labelLayer
10
52.228153
20
39.7222148
40
5.9537507
50
84.9922713
51
90.1280813
0
ARC
8
front_labelLayer
10
52.3711436
20
41.3242106
40
4.3453892
50
78.4891492
51
85.0266376
0
ARC
8
front_labelLayer
10
51.8161724
20
38.8000356
40
5.7157063
50
77.4454105
51
81.6360423
0
ARC
8
front_labelLayer
10
52.0652006
20
40.5165647
40
3.9812118
50
81.5884353
51
87.1916597
0
ARC
8
front_labelLayer
10
52.1192877
20
41.454521
40
3.0417427
50
87.3436103
51
89.9659798
0
ARC
8
front_labelLayer
10
52.1067215
20
42.2492086
40
2.2471004
50
89.6335396
51
137.0880816
0
ARC
8
front_labelLayer
10
52.6582166
20
41.629043
40
3.0742781
50
135.6209563
51
138.8377529
0
ARC
8
front_labelLayer
10
52.5773916
20
41.7079324
40
2.9615112
50
138.9575743
51
174.5422303
0
ARC
8
front_labelLayer
10
53.5419123
20
41.5570138
40
3.9364483
50
173.6907646
51
180.0882507
0
ARC
8
front_labelLayer
10
53.4055336
20
41.7840194
40
4.3795989
50
139.4139392
51
150.6032715
0
ARC
8
front_labelLayer
10
52.6202603
20
42.4569162
40
3.3454596
50
124.2321394
51
139.4161176
0
ARC
8
front_labelLayer
10
52.2003894
20
43.0907105
40
2.5852804
50
89.6796567
51
124.4405686
0
ARC
8
front_labelLayer
10
55.5317243
20
41.2011024
40
6.6988966
50
349.1762012
51
0.3862631
0
ARC
8
front_labelLayer
10
57.78709
20
40.7514921
40
4.3992605
50
330.2507006
51
349.4116472
0
ARC
8
front_labelLayer
10
58.4811852
20
40.3907256
40
3.6177637
50
318.1439573
51
329.7566506
0
ARC
8
front_labelLayer
10
58.6064463
20
40.2903412
40
3.4574948
50
278.8959168
51
317.9979082
0
ARC
8
front_labelLayer
10
58.2836668
20
41.8368007
40
5.035898
50
269.7502859
51
279.8033344
0
ARC
8
front_labelLayer
10
58.2313182
20
40.9654679
40
4.1646282
50
253.5436888
51
270.4182458
0
ARC
8
front_labelLayer
10
58.0926904
20
40.4292147
40
3.6111209
50
238.8115736
51
253.2428111
0
ARC
8
front_labelLayer
10
58.0479442
20
40.33923
40
3.5109796
50
207.794703
51
238.6757998
0
ARC
8
front_labelLayer
10
58.6901776
20
40.7325427
40
4.2627938
50
205.6560831
51
208.4460268
0
ARC
8
front_labelLayer
10
59.1844578
20
40.9384725
40
4.7975876
50
188.9102511
51
205.3171429
0
ARC
8
front_labelLayer
10
60.8509625
20
41.2207257
40
6.4877316
50
179.7744682
51
189.0932982
0
ARC
8
front_labelLayer
10
61.0968089
20
41.2918714
40
6.7336821
50
169.2442988
51
180.3880767
0
ARC
8
front_labelLayer
10
58.8101041
20
41.7438699
40
4.4028317
50
150.7111575
51
169.469544
0
ARC
8
front_labelLayer
10
58.0801244
20
42.1187388
40
3.5829056
50
138.1759663
51
150.2287244
0
ARC
8
front_labelLayer
10
57.9586867
20
42.2119275
40
3.4302876
50
99.175932
51
137.9832767
0
ARC
8
front_labelLayer
10
58.2929029
20
40.6390677
40
5.0369378
50
89.7326461
51
100.0759793
0
ARC
8
front_labelLayer
10
58.3596993
20
41.3183313
40
4.3578344
50
73.5222869
51
90.5692168
0
ARC
8
front_labelLayer
10
58.61526
20
42.2468563
40
3.3950052
50
41.1445676
51
73.2133749
0
ARC
8
front_labelLayer
10
58.1274161
20
41.8275608
40
4.0382607
50
13.5014391
51
41.0703471
0
ARC
8
front_labelLayer
10
56.2426384
20
41.3343386
40
5.9862338
50
1.1277169
51
13.8800126
0
ARC
8
front_labelLayer
10
54.6198679
20
41.2473464
40
7.6106009
50
359.9918443
51
1.5420649
0
ARC
8
front_labelLayer
10
62.2742917
20
41.2125589
40
6.567347
50
179.7059517
51
187.9160706
0
ARC
8
front_labelLayer
10
59.8656126
20
40.8665572
40
4.1339827
50
187.7639522
51
200.0976598
0
ARC
8
front_labelLayer
10
58.5386451
20
40.3803555
40
2.7207473
50
200.0845656
51
216.9131853
0
ARC
8
front_labelLayer
10
58.0540987
20
40.034365
40
2.1255753
50
217.3009467
51
261.7099208
0
ARC
8
front_labelLayer
10
58.2790443
20
41.1077729
40
3.2209149
50
260.5033005
51
270.2476987
0
ARC
8
front_labelLayer
10
58.3219802
20
40.8990593
40
3.0123109
50
269.4481787
51
284.7255674
0
ARC
8
front_labelLayer
10
58.5604481
20
40.0146597
40
2.096352
50
284.5662212
51
322.6333896
0
ARC
8
front_labelLayer
10
58.0028989
20
40.4174641
40
2.7840014
50
323.0089322
51
342.6390441
0
ARC
8
front_labelLayer
10
56.4081966
20
40.9386581
40
4.4616269
50
342.3615742
51
353.7537649
0
ARC
8
front_labelLayer
10
54.055476
20
41.2222484
40
6.8312849
50
353.5363074
51
0.2014182
0
ARC
8
front_labelLayer
10
54.415941
20
41.2792887
40
6.470862
50
359.707576
51
7.8972758
0
ARC
8
front_labelLayer
10
56.7857548
20
41.6190237
40
4.0768595
50
7.7439955
51
20.0690237
0
ARC
8
front_labelLayer
10
58.1063107
20
42.1036198
40
2.6701986
50
20.0256779
51
37.4350666
0
ARC
8
front_labelLayer
10
58.5444531
20
42.4145193
40
2.1333995
50
37.957772
51
80.4006157
0
ARC
8
front_labelLayer
10
58.2954668
20
41.3035587
40
3.2708796
50
79.3453667
51
90.3174619
0
ARC
8
front_labelLayer
10
58.2493656
20
41.4881011
40
3.0864138
50
89.480611
51
103.8805101
0
ARC
8
front_labelLayer
10
57.9900262
20
42.4756631
40
2.0655291
50
103.468519
51
142.3118967
0
ARC
8
front_labelLayer
10
58.4942042
20
42.1210894
40
2.6814262
50
142.9025851
51
162.3749443
0
ARC
8
front_labelLayer
10
60.0828449
20
41.5916789
40
4.3558556
50
162.0653062
51
173.1675044
0
ARC
8
front_labelLayer
10
62.5599956
20
41.275731
40
6.8530279
50
173.0086135
51
180.2463718
0
LINE
8
front_labelLayer
10
71.6601562
20
36.9572006
11
70.3632812
21
36.9572006
0
LINE
8
front_labelLayer
10
70.3632812
20
36.9572006
11
70.3632812
21
42.4962631
0
LINE
8
front_labelLayer
10
65.8007812
20
41.4493881
11
65.8007812
21
36.9572006
0
LINE
8
front_labelLayer
10
65.8007812
20
36.9572006
11
64.5039062
21
36.9572006
0
LINE
8
front_labelLayer
10
64.5039062
20
36.9572006
11
64.5039062
21
45.5197006
0
LINE
8
front_labelLayer
10
64.5039062
20
45.5197006
11
65.5585937
21
45.5197006
0
LINE
8
front_labelLayer
10
65.5585937
20
45.5197006
11
65.7695312
21
44.3478256
0
LINE
8
front_labelLayer
10
65.7695312
20
44.3478256
11
65.8320312
21
44.3478256
0
LINE
8
front_labelLayer
10
71.6601562
20
42.5431381
11
71.6601562
21
36.9572006
0
ARC
8
front_labelLayer
10
66.697394
20
42.517287
40
3.6659475
50
359.6714116
51
8.6877042
0
ARC
8
front_labelLayer
10
68.0560918
20
42.7327648
40
2.2903044
50
8.4931757
51
22.6579516
0
ARC
8
front_labelLayer
10
68.7464196
20
43.0196428
40
1.5427422
50
22.7024126
51
42.3419703
0
ARC
8
front_labelLayer
10
68.8240115
20
43.0545453
40
1.4621218
50
43.3790871
51
71.5385936
0
ARC
8
front_labelLayer
10
68.5338488
20
42.2437559
40
2.3231437
50
71.0827949
51
84.3691365
0
ARC
8
front_labelLayer
10
68.4035959
20
41.136317
40
3.4380831
50
84.019775
51
90.1510624
0
ARC
8
front_labelLayer
10
68.3666702
20
40.6494533
40
3.9250337
50
89.5932947
51
100.3718021
0
ARC
8
front_labelLayer
10
68.0892908
20
42.104765
40
2.4435875
50
100.1176314
51
118.16026
0
ARC
8
front_labelLayer
10
67.8097647
20
42.6528938
40
1.8284618
50
118.5439559
51
139.1926609
0
ARC
8
front_labelLayer
10
68.0534983
20
42.489347
40
2.1201243
50
140.1519169
51
160.3146246
0
ARC
8
front_labelLayer
10
69.5253038
20
41.9380702
40
3.6916859
50
159.953415
51
171.3801439
0
ARC
8
front_labelLayer
10
71.9295843
20
41.5515884
40
6.1267728
50
171.1765791
51
178.3217475
0
ARC
8
front_labelLayer
10
74.1091387
20
41.4528184
40
8.3083581
50
178.0811031
51
180.023656
0
ARC
8
front_labelLayer
10
68.0505348
20
42.9427735
40
2.6260102
50
116.9443042
51
147.6525594
0
ARC
8
front_labelLayer
10
68.3238516
20
42.4856473
40
3.1575716
50
115.8072465
51
117.6068589
0
ARC
8
front_labelLayer
10
68.4636054
20
42.1597838
40
3.5118124
50
94.3226832
51
115.5454246
0
ARC
8
front_labelLayer
10
68.5476573
20
41.4295583
40
4.2463935
50
89.9578497
51
94.7109166
0
ARC
8
front_labelLayer
10
68.5824012
20
40.5557636
40
5.1202846
50
80.558539
51
90.353828
0
ARC
8
front_labelLayer
10
68.9023848
20
42.4092366
40
3.23945
50
65.1094469
51
80.763808
0
ARC
8
front_labelLayer
10
69.2764344
20
43.2377493
40
2.3304816
50
46.5584651
51
64.878241
0
ARC
8
front_labelLayer
10
69.3063738
20
43.3240554
40
2.2475445
50
19.3848611
51
45.5997186
0
ARC
8
front_labelLayer
10
68.0060945
20
42.8361669
40
3.6361605
50
6.9633695
51
19.8363429
0
ARC
8
front_labelLayer
10
66.0006456
20
42.5665322
40
5.6595591
50
359.7631642
51
7.211561
0
LINE
8
front_labelLayer
10
78.2617187
20
38.0275131
11
78.2617187
21
37.0353256
0
LINE
8
front_labelLayer
10
74.4179687
20
39.4181381
11
74.4179687
21
44.5118881
0
LINE
8
front_labelLayer
10
74.4179687
20
44.5118881
11
73.1914062
21
44.5118881
0
LINE
8
front_labelLayer
10
73.1914062
20
44.5118881
11
73.1914062
21
45.1368881
0
LINE
8
front_labelLayer
10
73.1914062
20
45.1368881
11
74.4179687
21
45.6759506
0
LINE
8
front_labelLayer
10
74.4179687
20
45.6759506
11
74.9648437
21
47.5040756
0
LINE
8
front_labelLayer
10
74.9648437
20
47.5040756
11
75.7148437
21
47.5040756
0
LINE
8
front_labelLayer
10
75.7148437
20
47.5040756
11
75.7148437
21
45.5197006
0
LINE
8
front_labelLayer
10
75.7148437
20
45.5197006
11
78.1992187
21
45.5197006
0
LINE
8
front_labelLayer
10
78.1992187
20
45.5197006
11
78.1992187
21
44.5118881
0
LINE
8
front_labelLayer
10
78.1992187
20
44.5118881
11
75.7148437
21
44.5118881
0
LINE
8
front_labelLayer
10
75.7148437
20
44.5118881
11
75.7148437
21
39.4728256
0
ARC
8
front_labelLayer
10
77.0987375
20
42.13037
40
4.2591162
50
269.8803567
51
278.3028318
0
ARC
8
front_labelLayer
10
77.1393945
20
41.7984162
40
3.9247782
50
278.4153127
51
279.0079991
0
ARC
8
front_labelLayer
10
76.6612722
20
44.8527022
40
7.0162574
50
278.9590721
51
280.5103649
0
ARC
8
front_labelLayer
10
77.11693
20
42.4078125
40
4.5292706
50
280.4846589
51
282.6269548
0
ARC
8
front_labelLayer
10
77.5162829
20
40.6336615
40
2.7107303
50
282.5876285
51
285.5795817
0
ARC
8
front_labelLayer
10
77.7156452
20
39.9003354
40
1.9508101
50
285.7239904
51
286.255517
0
ARC
8
front_labelLayer
10
77.7164736
20
38.1885515
40
1.2756262
50
287.9888574
51
295.3047808
0
ARC
8
front_labelLayer
10
77.4087985
20
39.1194209
40
2.2560173
50
283.3069695
51
288.1197178
0
ARC
8
front_labelLayer
10
77.0837649
20
40.4752683
40
3.6502763
50
280.0070407
51
283.3734265
0
ARC
8
front_labelLayer
10
76.8665363
20
41.6540659
40
4.8488964
50
279.1861309
51
280.1143916
0
ARC
8
front_labelLayer
10
76.7328338
20
42.4145687
40
5.6210002
50
275.5260636
51
279.2939685
0
ARC
8
front_labelLayer
10
76.8832571
20
40.8434553
40
4.0427032
50
270.8933019
51
275.5483393
0
ARC
8
front_labelLayer
10
76.9021611
20
40.1256334
40
3.3246827
50
270.0031482
51
270.7604232
0
ARC
8
front_labelLayer
10
76.8500108
20
40.1877974
40
3.3872511
50
253.7848117
51
270.8852531
0
ARC
8
front_labelLayer
10
76.4487117
20
38.8192123
40
1.9610501
50
190.3817602
51
253.8772488
0
ARC
8
front_labelLayer
10
78.4941232
20
39.3722561
40
4.0764128
50
179.3550948
51
192.8477675
0
ARC
8
front_labelLayer
10
78.3262607
20
39.4564927
40
2.6114681
50
179.6416537
51
189.7506186
0
ARC
8
front_labelLayer
10
77.4043608
20
39.2920584
40
1.6750477
50
189.5479202
51
205.787396
0
ARC
8
front_labelLayer
10
77.0255001
20
39.117352
40
1.2579354
50
206.1294055
51
221.4084301
0
ARC
8
front_labelLayer
10
76.9830241
20
39.0851214
40
1.2047661
50
221.5949113
51
262.3505133
0
ARC
8
front_labelLayer
10
77.0840559
20
39.6046592
40
1.7334058
50
261.3265906
51
270.1913121
0
LINE
8
left_outsideCutPath
10
125.45
20
83
11
125.45
21
63.25
0
LINE
8
left_outsideCutPath
10
125.45
20
63.25
11
123
21
63.25
0
LINE
8
left_outsideCutPath
10
123
20
63.25
11
123
21
49.75
0
LINE
8
left_outsideCutPath
10
123
20
49.75
11
125.45
21
49.75
0
LINE
8
left_outsideCutPath
10
125.45
20
49.75
11
125.45
21
36.25
0
LINE
8
left_outsideCutPath
10
125.45
20
36.25
11
123
21
36.25
0
LINE
8
left_outsideCutPath
10
123
20
36.25
11
123
21
22.75
0
LINE
8
left_outsideCutPath
10
123
20
22.75
11
125.45
21
22.75
0
LINE
8
left_outsideCutPath
10
125.45
20
22.75
11
125.45
21
9.25
0
LINE
8
left_outsideCutPath
10
125.45
20
9.25
11
125.45
21
3
0
LINE
8
left_outsideCutPath
10
125.45
20
3
11
136.25
21
3
0
LINE
8
left_outsideCutPath
10
136.25
20
3
11
136.25
21
5.45
0
LINE
8
left_outsideCutPath
10
136.25
20
5.45
11
149.75
21
5.45
0
LINE
8
left_outsideCutPath
10
149.75
20
5.45
11
149.75
21
3
0
LINE
8
left_outsideCutPath
10
149.75
20
3
11
160.55
21
3
0
LINE
8
left_outsideCutPath
10
160.55
20
3
11
160.55
21
22.75
0
LINE
8
left_outsideCutPath
10
160.55
20
22.75
11
163
21
22.75
0
LINE
8
left_outsideCutPath
10
163
20
22.75
11
163
21
36.25
0
LINE
8
left_outsideCutPath
10
163
20
36.25
11
160.55
21
36.25
0
LINE
8
left_outsideCutPath
10
160.55
20
36.25
11
160.55
21
49.75
0
LINE
8
left_outsideCutPath
10
160.55
20
49.75
11
163
21
49.75
0
LINE
8
left_outsideCutPath
10
163
20
49.75
11
163
21
63.25
0
LINE
8
left_outsideCutPath
10
163
20
63.25
11
160.55
21
63.25
0
LINE
8
left_outsideCutPath
10
160.55
20
63.25
11
160.55
21
76.75
0
LINE
8
left_outsideCutPath
10
160.55
20
76.75
11
160.55
21
83
0
LINE
8
left_outsideCutPath
10
160.55
20
83
11
149.75
21
83
0
LINE
8
left_outsideCutPath
10
149.75
20
83
11
149.75
21
80.55
0
LINE
8
left_outsideCutPath
10
149.75
20
80.55
11
136.25
21
80.55
0
LINE
8
left_outsideCutPath
10
136.25
20
80.55
11
136.25
21
83
0
LINE
8
left_outsideCutPath
10
136.25
20
83
11
125.45
21
83
0
LINE
8
left_labelLayer
10
138.0527344
20
46.0567253
11
138.0527344
21
39.9786003
0
LINE
8
left_labelLayer
10
138.0527344
20
39.9786003
11
137.4042969
21
39.9786003
0
LINE
8
left_labelLayer
10
137.4042969
20
39.9786003
11
137.4042969
21
46.0567253
0
LINE
8
left_labelLayer
10
137.4042969
20
46.0567253
11
138.0527344
21
46.0567253
0
LINE
8
left_labelLayer
10
142.8105469
20
42.4121941
11
142.8105469
21
42.0020378
0
LINE
8
left_labelLayer
10
142.8105469
20
42.0020378
11
139.8613281
21
42.0020378
0
LINE
8
left_labelLayer
10
142.6269531
20
40.7559441
11
142.6269531
21
40.1778191
0
LINE
8
left_labelLayer
10
139.8769531
20
42.5293816
11
142.1152344
21
42.5293816
0
ARC
8
left_labelLayer
10
141.2150061
20
42.420179
40
2.5197939
50
256.0087853
51
270.4848309
0
ARC
8
left_labelLayer
10
141.0315157
20
41.707834
40
1.7842285
50
223.5465862
51
256.1957088
0
ARC
8
left_labelLayer
10
141.1327393
20
41.7814045
40
1.9083532
50
194.0877284
51
223.0538178
0
ARC
8
left_labelLayer
10
142.0602207
20
42.0350371
40
2.8697472
50
181.357463
51
194.4920058
0
ARC
8
left_labelLayer
10
142.8930207
20
42.0833333
40
3.7035676
50
179.9886162
51
181.7992038
0
ARC
8
left_labelLayer
10
142.5943016
20
42.1069104
40
3.4049251
50
168.9539231
51
180.3843605
0
ARC
8
left_labelLayer
10
141.4822781
20
42.333337
40
2.2701391
50
149.4071305
51
169.1853607
0
ARC
8
left_labelLayer
10
141.1724497
20
42.4970335
40
1.9201995
50
140.1056192
51
148.9066894
0
ARC
8
left_labelLayer
10
140.9820915
20
42.6725338
40
1.6616375
50
92.4762753
51
140.5386365
0
ARC
8
left_labelLayer
10
141.0669145
20
42.045608
40
2.2923677
50
89.963888
51
93.9175166
0
ARC
8
left_labelLayer
10
141.0871515
20
42.3625242
40
1.9755406
50
74.2126082
51
90.5450278
0
ARC
8
left_labelLayer
10
141.2108843
20
42.8184134
40
1.5031926
50
41.206479
51
74.0232559
0
ARC
8
left_labelLayer
10
140.9765572
20
42.6156203
40
1.8130822
50
11.5994264
51
41.1496205
0
ARC
8
left_labelLayer
10
140.1714056
20
42.4299373
40
2.639201
50
359.6148012
51
12.0336333
0
ARC
8
left_labelLayer
10
142.4634124
20
42.0540326
40
2.6026037
50
181.1447296
51
190.8006762
0
ARC
8
left_labelLayer
10
141.5452358
20
41.8729438
40
1.666768
50
190.600576
51
206.0275
0
ARC
8
left_labelLayer
10
141.139003
20
41.6808961
40
1.2174759
50
206.2950449
51
222.5558444
0
ARC
8
left_labelLayer
10
141.10301
20
41.6620503
40
1.1782639
50
223.0645026
51
258.14013
0
ARC
8
left_labelLayer
10
141.2463063
20
42.2520856
40
1.7852547
50
257.5311661
51
270.4319651
0
ARC
8
left_labelLayer
10
141.2479062
20
43.8916169
40
3.4247559
50
270.1984072
51
292.2090478
0
ARC
8
left_labelLayer
10
141.0835604
20
44.363645
40
3.9239733
50
291.825503
51
293.1614841
0
ARC
8
left_labelLayer
10
141.075581
20
43.7480833
40
3.8927551
50
287.9022724
51
293.4861917
0
ARC
8
left_labelLayer
10
141.3579526
20
42.8768606
40
2.9769157
50
281.9935909
51
287.8851268
0
ARC
8
left_labelLayer
10
141.4263904
20
42.6308876
40
2.7221365
50
275.9054825
51
281.6603973
0
ARC
8
left_labelLayer
10
141.2893934
20
43.909634
40
4.0081946
50
271.9119166
51
275.9727041
0
ARC
8
left_labelLayer
10
141.2393783
20
45.1836437
40
5.2831691
50
269.9669206
51
271.9930633
0
ARC
8
left_labelLayer
10
141.0481037
20
42.5168487
40
1.2782185
50
89.4422299
51
106.2089946
0
ARC
8
left_labelLayer
10
140.9712053
20
42.7972307
40
0.9875261
50
106.4657151
51
137.9176226
0
ARC
8
left_labelLayer
10
141.1916796
20
42.6036187
40
1.280923
50
138.0995018
51
160.5866066
0
ARC
8
left_labelLayer
10
141.7584114
20
42.3951297
40
1.8847493
50
160.335378
51
172.5314856
0
ARC
8
left_labelLayer
10
142.3166169
20
42.3056973
40
2.4498969
50
172.1545461
51
174.7613958
0
ARC
8
left_labelLayer
10
139.9056191
20
42.5419327
40
2.2096509
50
359.6745497
51
8.9224579
0
ARC
8
left_labelLayer
10
140.6951896
20
42.6705817
40
1.4096895
50
8.7342048
51
23.277252
0
ARC
8
left_labelLayer
10
141.0700192
20
42.8279273
40
1.0031963
50
23.4821371
51
39.7072637
0
ARC
8
left_labelLayer
10
141.1620876
20
42.8968253
40
0.888369
50
40.0822901
51
80.6243088
0
ARC
8
left_labelLayer
10
141.0673142
20
42.4623789
40
1.3326449
50
79.6468865
51
90.2909561
0
LINE
8
left_labelLayer
10
145.8457031
20
44.2598503
11
145.8457031
21
43.7559441
0
LINE
8
left_labelLayer
10
145.8457031
20
43.7559441
11
144.7558594
21
43.7559441
0
LINE
8
left_labelLayer
10
144.7558594
20
43.7559441
11
144.7558594
21
39.9786003
0
LINE
8
left_labelLayer
10
144.7558594
20
39.9786003
11
144.1074219
21
39.9786003
0
LINE
8
left_labelLayer
10
144.1074219
20
39.9786003
11
144.1074219
21
43.7559441
0
LINE
8
left_labelLayer
10
144.1074219
20
43.7559441
11
143.3417969
21
43.7559441
0
LINE
8
left_labelLayer
10
143.3417969
20
43.7559441
11
143.3417969
21
44.0489128
0
LINE
8
left_labelLayer
10
143.3417969
20
44.0489128
11
144.1074219
21
44.2832878
0
LINE
8
left_labelLayer
10
144.1074219
20
44.2832878
11
144.1074219
21
44.5215691
0
LINE
8
left_labelLayer
10
146.2832031
20
45.9629753
11
146.1152344
21
45.4434441
0
LINE
8
left_labelLayer
10
144.7558594
20
44.5371941
11
144.7558594
21
44.2598503
0
LINE
8
left_labelLayer
10
144.7558594
20
44.2598503
11
145.8457031
21
44.2598503
0
ARC
8
left_labelLayer
10
146.7353114
20
44.5517815
40
2.6280632
50
167.5776086
51
180.6586899
0
ARC
8
left_labelLayer
10
145.499512
20
44.8398974
40
1.3593059
50
141.7434014
51
168.2321914
0
ARC
8
left_labelLayer
10
145.2982963
20
44.9449175
40
1.1370559
50
98.2551315
51
139.6203531
0
ARC
8
left_labelLayer
10
145.4749666
20
44.1287584
40
1.9709684
50
89.6697212
51
99.9313817
0
ARC
8
left_labelLayer
10
145.4754583
20
44.0116078
40
2.0881146
50
81.5640718
51
89.7017414
0
ARC
8
left_labelLayer
10
145.3286579
20
42.9874463
40
3.1227354
50
75.9739961
51
81.6564686
0
ARC
8
left_labelLayer
10
145.0767579
20
41.9426144
40
4.1974769
50
73.2963503
51
76.0946352
0
ARC
8
left_labelLayer
10
145.1402097
20
42.4495143
40
3.1486963
50
71.9612708
51
76.5919084
0
ARC
8
left_labelLayer
10
145.3844689
20
43.4857065
40
2.0841091
50
76.5183332
51
83.0216635
0
ARC
8
left_labelLayer
10
145.4695655
20
44.1700463
40
1.3945006
50
83.0760221
51
89.7927633
0
ARC
8
left_labelLayer
10
145.4667624
20
44.6900901
40
0.8744829
50
89.4858607
51
103.4197755
0
ARC
8
left_labelLayer
10
145.3879224
20
44.9929841
40
0.561598
50
102.7677754
51
144.337997
0
ARC
8
left_labelLayer
10
145.5467549
20
44.8907898
40
0.7502854
50
145.0688257
51
162.1801239
0
ARC
8
left_labelLayer
10
146.0913428
20
44.707564
40
1.3248402
50
161.8437716
51
171.7846675
0
ARC
8
left_labelLayer
10
146.9795502
20
44.5741569
40
2.2230017
50
171.6527351
51
178.4383447
0
ARC
8
left_labelLayer
10
147.8176074
20
44.538426
40
3.0617484
50
178.1973465
51
180.0230529
0
LINE
8
left_labelLayer
10
148.5957031
20
40.5137566
11
148.5957031
21
40.0176628
0
LINE
8
left_labelLayer
10
146.6738281
20
41.2090691
11
146.6738281
21
43.7559441
0
LINE
8
left_labelLayer
10
146.6738281
20
43.7559441
11
146.0605469
21
43.7559441
0
LINE
8
left_labelLayer
10
146.0605469
20
43.7559441
11
146.0605469
21
44.0684441
0
LINE
8
left_labelLayer
10
146.0605469
20
44.0684441
11
146.6738281
21
44.3379753
0
LINE
8
left_labelLayer
10
146.6738281
20
44.3379753
11
146.9472656
21
45.2520378
0
LINE
8
left_labelLayer
10
146.9472656
20
45.2520378
11
147.3222656
21
45.2520378
0
LINE
8
left_labelLayer
10
147.3222656
20
45.2520378
11
147.3222656
21
44.2598503
0
LINE
8
left_labelLayer
10
147.3222656
20
44.2598503
11
148.5644531
21
44.2598503
0
LINE
8
left_labelLayer
10
148.5644531
20
44.2598503
11
148.5644531
21
43.7559441
0
LINE
8
left_labelLayer
10
148.5644531
20
43.7559441
11
147.3222656
21
43.7559441
0
LINE
8
left_labelLayer
10
147.3222656
20
43.7559441
11
147.3222656
21
41.2364128
0
ARC
8
left_labelLayer
10
148.0142125
20
42.5651837
40
2.1295567
50
269.8803566
51
278.3028372
0
ARC
8
left_labelLayer
10
148.0344368
20
42.3997525
40
1.9629428
50
278.4159963
51
279.0085155
0
ARC
8
left_labelLayer
10
147.7955877
20
43.9257404
40
3.5075086
50
278.9588861
51
280.5104532
0
ARC
8
left_labelLayer
10
148.023229
20
42.7042834
40
2.2650206
50
280.4849063
51
282.6268378
0
ARC
8
left_labelLayer
10
148.2230026
20
41.8167611
40
1.3552933
50
282.5875512
51
285.5796631
0
ARC
8
left_labelLayer
10
148.3226679
20
41.4500656
40
0.9753063
50
285.7255298
51
286.2571101
0
ARC
8
left_labelLayer
10
148.3230928
20
40.594246
40
0.6377809
50
287.9886345
51
295.3049279
0
ARC
8
left_labelLayer
10
148.1692583
20
41.0596602
40
1.1279561
50
283.3067989
51
288.1197714
0
ARC
8
left_labelLayer
10
148.0067438
20
41.7375394
40
1.8250419
50
280.0070141
51
283.3735776
0
ARC
8
left_labelLayer
10
147.89765
20
42.3297556
40
2.4272096
50
279.1866352
51
280.1138398
0
ARC
8
left_labelLayer
10
147.8312629
20
42.7072925
40
2.8105078
50
275.5260029
51
279.2938973
0
ARC
8
left_labelLayer
10
147.9064721
20
41.9217322
40
2.0213561
50
270.8933044
51
275.5483315
0
ARC
8
left_labelLayer
10
147.9159243
20
41.5628167
40
1.6623414
50
270.0031482
51
270.7604232
0
ARC
8
left_labelLayer
10
147.8898497
20
41.5938973
40
1.6936241
50
253.7847802
51
270.8852355
0
ARC
8
left_labelLayer
10
147.6892
20
40.9096063
40
0.9805252
50
190.3817615
51
253.8772309
0
ARC
8
left_labelLayer
10
148.7119064
20
41.1861274
40
2.0382073
50
179.3550751
51
192.8477413
0
ARC
8
left_labelLayer
10
148.6279729
20
41.2282464
40
1.3057328
50
179.6416531
51
189.7506275
0
ARC
8
left_labelLayer
10
148.1670302
20
41.1460312
40
0.8375302
50
189.5479862
51
205.7873385
0
ARC
8
left_labelLayer
10
147.9776023
20
41.0586813
40
0.6289777
50
206.1294917
51
221.4082737
0
ARC
8
left_labelLayer
10
147.9563557
20
41.0425603
40
0.6023828
50
221.5948847
51
262.3505124
0
ARC
8
left_labelLayer
10
148.0068705
20
41.3023323
40
0.8667053
50
261.3266934
51
270.1913888
0
LINE
8
top_outsideCutPath
10
168.45
20
40.55
11
168.45
21
29.75
0
LINE
8
top_outsideCutPath
10
168.45
20
29.75
11
166
21
29.75
0
LINE
8
top_outsideCutPath
10
166
20
29.75
11
166
21
16.25
0
LINE
8
top_outsideCutPath
10
166
20
16.25
11
168.45
21
16.25
0
LINE
8
top_outsideCutPath
10
168.45
20
16.25
11
168.45
21
5.45
0
LINE
8
top_outsideCutPath
10
168.45
20
5.45
11
178.75
21
5.45
0
LINE
8
top_outsideCutPath
10
178.75
20
5.45
11
178.75
21
3
0
LINE
8
top_outsideCutPath
10
178.75
20
3
11
192.25
21
3
0
LINE
8
top_outsideCutPath
10
192.25
20
3
11
192.25
21
5.45
0
LINE
8
top_outsideCutPath
10
192.25
20
5.45
11
205.75
21
5.45
0
LINE
8
top_outsideCutPath
10
205.75
20
5.45
11
205.75
21
3
0
LINE
8
top_outsideCutPath
10
205.75
20
3
11
219.25
21
3
0
LINE
8
top_outsideCutPath
10
219.25
20
3
11
219.25
21
5.45
0
LINE
8
top_outsideCutPath
10
219.25
20
5.45
11
232.75
21
5.45
0
LINE
8
top_outsideCutPath
10
232.75
20
5.45
11
232.75
21
3
0
LINE
8
top_outsideCutPath
10
232.75
20
3
11
246.25
21
3
0
LINE
8
top_outsideCutPath
10
246.25
20
3
11
246.25
21
5.45
0
LINE
8
top_outsideCutPath
10
246.25
20
5.45
11
259.75
21
5.45
0
LINE
8
top_outsideCutPath
10
259.75
20
5.45
11
259.75
21
3
0
LINE
8
top_outsideCutPath
10
259.75
20
3
11
273.25
21
3
0
LINE
8
top_outsideCutPath
10
273.25
20
3
11
273.25
21
5.45
0
LINE
8
top_outsideCutPath
10
273.25
20
5.45
11
283.55
21
5.45
0
LINE
8
top_outsideCutPath
10
283.55
20
5.45
11
283.55
21
16.25
0
LINE
8
top_outsideCutPath
10
283.55
20
16.25
11
286
21
16.25
0
LINE
8
top_outsideCutPath
10
286
20
16.25
11
286
21
29.75
0
LINE
8
top_outsideCutPath
10
286
20
29.75
11
283.55
21
29.75
0
LINE
8
top_outsideCutPath
10
283.55
20
29.75
11
283.55
21
40.55
0
LINE
8
top_outsideCutPath
10
283.55
20
40.55
11
273.25
21
40.55
0
LINE
8
top_outsideCutPath
10
273.25
20
40.55
11
273.25
21
43
0
LINE
8
top_outsideCutPath
10
273.25
20
43
11
259.75
21
43
0
LINE
8
top_outsideCutPath
10
259.75
20
43
11
259.75
21
40.55
0
LINE
8
top_outsideCutPath
10
259.75
20
40.55
11
246.25
21
40.55
0
LINE
8
top_outsideCutPath
10
246.25
20
40.55
11
246.25
21
43
0
LINE
8
top_outsideCutPath
10
246.25
20
43
11
232.75
21
43
0
LINE
8
top_outsideCutPath
10
232.75
20
43
11
232.75
21
40.55
0
LINE
8
top_outsideCutPath
10
232.75
20
40.55
11
219.25
21
40.55
0
LINE
8
top_outsideCutPath
10
219.25
20
40.55
11
219.25
21
43
0
LINE
8
top_outsideCutPath
10
219.25
20
43
11
205.75
21
43
0
LINE
8
top_outsideCutPath
10
205.75
20
43
11
205.75
21
40.55
0
LINE
8
top_outsideCutPath
10
205.75
20
40.55
11
192.25
21
40.55
0
LINE
8
top_outsideCutPath
10
192.25
20
40.55
11
192.25
21
43
0
LINE
8
top_outsideCutPath
10
192.25
20
43
11
178.75
21
43
0
LINE
8
top_outsideCutPath
10
178.75
20
43
11
178.75
21
40.55
0
LINE
8
top_outsideCutPath
10
178.75
20
40.55
11
168.45
21
40.55
0
LINE
8
top_labelLayer
10
222.5390294
20
21.859375
11
222.5390294
21
21.3632813
0
LINE
8
top_labelLayer
10
220.6171544
20
22.5546875
11
220.6171544
21
25.1015625
0
LINE
8
top_labelLayer
10
220.6171544
20
25.1015625
11
220.0038732
21
25.1015625
0
LINE
8
top_labelLayer
10
220.0038732
20
25.1015625
11
220.0038732
21
25.4140625
0
LINE
8
top_labelLayer
10
220.0038732
20
25.4140625
11
220.6171544
21
25.6835938
0
LINE
8
top_labelLayer
10
220.6171544
20
25.6835938
11
220.8905919
21
26.5976563
0
LINE
8
top_labelLayer
10
220.8905919
20
26.5976563
11
221.2655919
21
26.5976563
0
LINE
8
top_labelLayer
10
221.2655919
20
26.5976563
11
221.2655919
21
25.6054688
0
LINE
8
top_labelLayer
10
221.2655919
20
25.6054688
11
222.5077794
21
25.6054688
0
LINE
8
top_labelLayer
10
222.5077794
20
25.6054688
11
222.5077794
21
25.1015625
0
LINE
8
top_labelLayer
10
222.5077794
20
25.1015625
11
221.2655919
21
25.1015625
0
LINE
8
top_labelLayer
10
221.2655919
20
25.1015625
11
221.2655919
21
22.5820313
0
ARC
8
top_labelLayer
10
221.9575388
20
23.9108021
40
2.1295567
50
269.8803566
51
278.3028372
0
ARC
8
top_labelLayer
10
221.9777631
20
23.7453709
40
1.9629428
50
278.4159963
51
279.0085155
0
ARC
8
top_labelLayer
10
221.738914
20
25.2713588
40
3.5075086
50
278.9588861
51
280.5104532
0
ARC
8
top_labelLayer
10
221.9665553
20
24.0499018
40
2.2650206
50
280.4849063
51
282.6268378
0
ARC
8
top_labelLayer
10
222.1663289
20
23.1623795
40
1.3552933
50
282.5875512
51
285.5796631
0
ARC
8
top_labelLayer
10
222.2659942
20
22.795684
40
0.9753063
50
285.7255298
51
286.2571101
0
ARC
8
top_labelLayer
10
222.2664192
20
21.9398644
40
0.6377809
50
287.9886345
51
295.3049279
0
ARC
8
top_labelLayer
10
222.1125847
20
22.4052786
40
1.1279561
50
283.3067989
51
288.1197714
0
ARC
8
top_labelLayer
10
221.9500701
20
23.0831578
40
1.8250419
50
280.0070141
51
283.3735776
0
ARC
8
top_labelLayer
10
221.8409763
20
23.675374
40
2.4272096
50
279.1866352
51
280.1138398
0
ARC
8
top_labelLayer
10
221.7745892
20
24.0529109
40
2.8105078
50
275.5260029
51
279.2938973
0
ARC
8
top_labelLayer
10
221.8497984
20
23.2673506
40
2.0213561
50
270.8933044
51
275.5483315
0
ARC
8
top_labelLayer
10
221.8592506
20
22.9084351
40
1.6623414
50
270.0031482
51
270.7604232
0
ARC
8
top_labelLayer
10
221.833176
20
22.9395157
40
1.6936241
50
253.7847802
51
270.8852355
0
ARC
8
top_labelLayer
10
221.6325263
20
22.2552247
40
0.9805252
50
190.3817615
51
253.8772309
0
ARC
8
top_labelLayer
10
222.6552327
20
22.5317458
40
2.0382073
50
179.3550751
51
192.8477413
0
ARC
8
top_labelLayer
10
222.5712992
20
22.5738648
40
1.3057328
50
179.6416531
51
189.7506275
0
ARC
8
top_labelLayer
10
222.1103565
20
22.4916496
40
0.8375302
50
189.5479862
51
205.7873385
0
ARC
8
top_labelLayer
10
221.9209286
20
22.4042997
40
0.6289777
50
206.1294917
51
221.4082737
0
ARC
8
top_labelLayer
10
221.899682
20
22.3881787
40
0.6023828
50
221.5948847
51
262.3505124
0
ARC
8
top_labelLayer
10
221.9501968
20
22.6479507
40
0.8667053
50
261.3266934
51
270.1913888
0
ARC
8
top_labelLayer
10
223.7404369
20
23.4461697
40
3.3494498
50
349.176205
51
0.3862618
0
ARC
8
top_labelLayer
10
224.868115
20
23.2213668
40
2.1996368
50
330.2507291
51
349.4116178
0
ARC
8
top_labelLayer
10
225.2151677
20
23.040983
40
1.8088837
50
318.1439408
51
329.7566215
0
ARC
8
top_labelLayer
10
225.2777995
20
22.9907891
40
1.7287474
50
278.8959168
51
317.9979082
0
ARC
8
top_labelLayer
10
225.1164096
20
23.7640193
40
2.5179495
50
269.7502874
51
279.8033339
0
ARC
8
top_labelLayer
10
225.0902348
20
23.3283529
40
2.0823146
50
253.5437081
51
270.4182617
0
ARC
8
top_labelLayer
10
225.0209196
20
23.0602205
40
1.8055549
50
238.8115402
51
253.2428223
0
ARC
8
top_labelLayer
10
224.9985488
20
23.0152335
40
1.75549
50
207.7946976
51
238.6757892
0
ARC
8
top_labelLayer
10
225.3195944
20
23.2118547
40
2.131318
50
205.6560571
51
208.4461042
0
ARC
8
top_labelLayer
10
225.5668044
20
23.3148547
40
2.3987931
50
188.9102534
51
205.3171503
0
ARC
8
top_labelLayer
10
226.4000583
20
23.4559801
40
3.2438663
50
179.7744475
51
189.0932757
0
ARC
8
top_labelLayer
10
226.5229792
20
23.4915542
40
3.3668395
50
169.244295
51
180.3880781
0
ARC
8
top_labelLayer
10
225.3796258
20
23.7175539
40
2.2014133
50
150.7111375
51
169.4695455
0
ARC
8
top_labelLayer
10
225.014624
20
23.9049987
40
1.7914348
50
138.1759169
51
150.2287967
0
ARC
8
top_labelLayer
10
224.9539195
20
23.9515823
40
1.7151437
50
99.1759282
51
137.9832759
0
ARC
8
top_labelLayer
10
225.1210284
20
23.1651376
40
2.5184835
50
89.7326625
51
100.0759357
0
ARC
8
top_labelLayer
10
225.1544268
20
23.5047871
40
2.1789142
50
73.522285
51
90.5692388
0
ARC
8
top_labelLayer
10
225.2822067
20
23.9690466
40
1.6975025
50
41.1445754
51
73.2133864
0
ARC
8
top_labelLayer
10
225.0382847
20
23.7593994
40
2.0191297
50
13.5014266
51
41.0703424
0
ARC
8
top_labelLayer
10
224.0958928
20
23.5127883
40
2.9931193
50
1.1277045
51
13.8799893
0
ARC
8
top_labelLayer
10
223.2839667
20
23.4692807
40
3.8058441
50
359.9920106
51
1.5420098
0
ARC
8
top_labelLayer
10
227.1117005
20
23.4518972
40
3.2836519
50
179.7059385
51
187.9161113
0
ARC
8
top_labelLayer
10
225.9073637
20
23.2788925
40
2.0669721
50
187.763898
51
200.0977209
0
ARC
8
top_labelLayer
10
225.2439044
20
23.0357991
40
1.3603799
50
200.0845992
51
216.9131419
0
ARC
8
top_labelLayer
10
225.0016264
20
22.8628021
40
1.0627889
50
217.3009705
51
261.7098903
0
ARC
8
top_labelLayer
10
225.1140989
20
23.3995185
40
1.6104709
50
260.5033629
51
270.2476793
0
ARC
8
top_labelLayer
10
225.1355661
20
23.2951535
40
1.5061609
50
269.4481913
51
284.7255253
0
ARC
8
top_labelLayer
10
225.2547993
20
22.8529497
40
1.0481777
50
284.5662583
51
322.6333624
0
ARC
8
top_labelLayer
10
224.9760275
20
23.0543498
40
1.3919989
50
323.0089126
51
342.639051
0
ARC
8
top_labelLayer
10
224.1786805
20
23.3149467
40
2.2308076
50
342.361548
51
353.7537688
0
ARC
8
top_labelLayer
10
223.0023117
20
23.4567411
40
3.4156449
50
353.5363382
51
0.2014441
0
ARC
8
top_labelLayer
10
223.1825656
20
23.4852647
40
3.2354122
50
359.7075398
51
7.8972873
0
ARC
8
top_labelLayer
10
224.367452
20
23.655131
40
2.0384314
50
7.7439685
51
20.0689877
0
ARC
8
top_labelLayer
10
225.0277292
20
23.8974263
40
1.3351023
50
20.0257243
51
37.4350725
0
ARC
8
top_labelLayer
10
225.2468035
20
24.0528791
40
1.0666986
50
37.9577496
51
80.4006407
0
ARC
8
top_labelLayer
10
225.1223112
20
23.4974083
40
1.6354292
50
79.3453495
51
90.3175156
0
ARC
8
top_labelLayer
10
225.099258
20
23.5896742
40
1.5432017
50
89.4805685
51
103.8805164
0
ARC
8
top_labelLayer
10
224.9695891
20
24.0834503
40
1.0327642
50
103.4685092
51
142.3119012
0
ARC
8
top_labelLayer
10
225.2216747
20
23.9061655
40
1.3407088
50
142.9025698
51
162.374992
0
ARC
8
top_labelLayer
10
226.0160179
20
23.6414535
40
2.1779473
50
162.06535
51
173.1674484
0
ARC
8
top_labelLayer
10
227.2545976
20
23.4834833
40
3.4265373
50
173.0086503
51
180.2463589
0
LINE
8
top_labelLayer
10
228.8749669
20
21.875
11
228.8280919
21
21.875
0
LINE
8
top_labelLayer
10
228.8749669
20
21.1640625
11
228.8749669
21
19.4023438
0
LINE
8
top_labelLayer
10
228.8749669
20
19.4023438
11
228.2265294
21
19.4023438
0
LINE
8
top_labelLayer
10
228.2265294
20
19.4023438
11
228.2265294
21
25.6054688
0
LINE
8
top_labelLayer
10
228.2265294
20
25.6054688
11
228.7538732
21
25.6054688
0
LINE
8
top_labelLayer
10
228.7538732
20
25.6054688
11
228.8437169
21
25.0195313
0
LINE
8
top_labelLayer
10
228.8437169
20
25.0195313
11
228.8749669
21
25.0195313
0
LINE
8
top_labelLayer
10
228.8749669
20
23.6132813
11
228.8749669
21
23.46875
0
ARC
8
top_labelLayer
10
230.2077812
20
23.2129083
40
1.966845
50
255.7755145
51
270.3185693
0
ARC
8
top_labelLayer
10
230.1516527
20
22.96354
40
1.711344
50
245.9801605
51
255.5455876
0
ARC
8
top_labelLayer
10
230.0429385
20
22.7107237
40
1.4361725
50
215.5850185
51
245.8361543
0
ARC
8
top_labelLayer
10
222.7398474
20
21.1056524
40
6.1366617
50
2.95034
51
7.2020699
0
ARC
8
top_labelLayer
10
223.7326121
20
21.1612022
40
5.1423557
50
0.0318688
51
2.9015581
0
ARC
8
top_labelLayer
10
230.3033493
20
24.0163757
40
1.7454505
50
132.3565205
51
144.9195636
0
ARC
8
top_labelLayer
10
230.0359566
20
24.308093
40
1.3497278
50
115.4005982
51
132.3118532
0
ARC
8
top_labelLayer
10
230.1402556
20
24.0541911
40
1.6238902
50
97.7066005
51
114.8821668
0
ARC
8
top_labelLayer
10
230.2130997
20
23.5817687
40
2.1018327
50
89.8468748
51
97.9474185
0
ARC
8
top_labelLayer
10
230.2387865
20
23.6960715
40
1.9876235
50
74.1923439
51
90.5785425
0
ARC
8
top_labelLayer
10
230.3763178
20
24.1960272
40
1.4691157
50
38.0523473
51
74.0417148
0
ARC
8
top_labelLayer
10
229.9969771
20
23.9052795
40
1.9470444
50
16.3356098
51
37.9090434
0
ARC
8
top_labelLayer
10
229.0004442
20
23.5983418
40
2.9897122
50
4.5766513
51
16.6088708
0
ARC
8
top_labelLayer
10
227.7736535
20
23.4760968
40
4.2224137
50
359.9003085
51
4.9018621
0
ARC
8
top_labelLayer
10
228.1941937
20
23.4463195
40
3.8019331
50
350.6562649
51
0.3380337
0
ARC
8
top_labelLayer
10
229.519605
20
23.2208809
40
2.4575166
50
335.8305869
51
350.8254736
0
ARC
8
top_labelLayer
10
230.10263
20
22.9692389
40
1.8225919
50
321.3161666
51
335.5436116
0
ARC
8
top_labelLayer
10
230.3255282
20
22.7876116
40
1.5350768
50
274.0640082
51
321.4081008
0
ARC
8
top_labelLayer
10
230.2216908
20
23.4453287
40
2.1992369
50
269.9225227
51
275.5482146
0
ARC
8
top_labelLayer
10
230.11161
20
23.264463
40
1.8683972
50
89.5903974
51
100.3501644
0
ARC
8
top_labelLayer
10
229.9783815
20
23.964371
40
1.1559538
50
100.086836
51
118.1917473
0
ARC
8
top_labelLayer
10
229.8418984
20
24.2305615
40
0.8568806
50
118.5569997
51
141.0243229
0
ARC
8
top_labelLayer
10
230.0498714
20
24.0838614
40
1.1109611
50
141.8890573
51
160.597322
0
ARC
8
top_labelLayer
10
230.7807848
20
23.8156689
40
1.8894861
50
160.2896025
51
171.2452851
0
ARC
8
top_labelLayer
10
231.9825129
20
23.6219107
40
3.1067157
50
171.0868256
51
178.3247513
0
ARC
8
top_labelLayer
10
233.0015321
20
23.5734812
40
4.1267571
50
178.0662534
51
179.4474084
0
ARC
8
top_labelLayer
10
233.16237
20
23.4520101
40
4.2874357
50
179.7762935
51
185.7075238
0
ARC
8
top_labelLayer
10
231.4719795
20
23.2778409
40
2.5881095
50
185.5924992
51
194.2050682
0
ARC
8
top_labelLayer
10
230.3891281
20
22.9968024
40
1.4694182
50
193.9429988
51
208.0218941
0
ARC
8
top_labelLayer
10
229.951012
20
22.773918
40
0.9779924
50
208.5535994
51
217.5605508
0
ARC
8
top_labelLayer
10
229.9153241
20
22.7590766
40
0.9407079
50
218.1690506
51
253.804688
0
ARC
8
top_labelLayer
10
230.0898065
20
23.2970283
40
1.5060788
50
253.1382766
51
266.8483132
0
ARC
8
top_labelLayer
10
230.1387342
20
23.8740345
40
2.0849729
50
266.3775678
51
270.0510515
0
ARC
8
top_labelLayer
10
230.155357
20
22.8815546
40
1.0925919
50
269.2256918
51
292.0430488
0
ARC
8
top_labelLayer
10
230.1700993
20
22.7936997
40
1.0058116
50
293.1429662
51
324.135418
0
ARC
8
top_labelLayer
10
229.9512097
20
22.9790386
40
1.2919721
50
323.1615801
51
325.0155601
0
ARC
8
top_labelLayer
10
229.7165351
20
23.1245691
40
1.5677582
50
325.5753601
51
344.1504795
0
ARC
8
top_labelLayer
10
228.9052532
20
23.3643925
40
2.4137129
50
343.9336315
51
355.113757
0
ARC
8
top_labelLayer
10
227.8696483
20
23.4694779
40
3.4545445
50
354.8402074
51
0.1175021
0
ARC
8
top_labelLayer
10
228.0520229
20
23.493078
40
3.2722045
50
359.7108145
51
7.861036
0
ARC
8
top_labelLayer
10
229.2417994
20
23.6626776
40
2.0704189
50
7.714948
51
19.8859949
0
ARC
8
top_labelLayer
10
229.8961413
20
23.8990305
40
1.3746993
50
19.8991123
51
35.8980424
0
ARC
8
top_labelLayer
10
230.188005
20
24.120067
40
1.0086993
50
35.4481423
51
85.2266598
0
ARC
8
top_labelLayer
10
230.1270322
20
23.737691
40
1.395123
50
84.0379571
51
90.0848173
0
LINE
8
back_outsideCutPath
10
0
20
166
11
0
21
146.25
0
LINE
8
back_outsideCutPath
10
0
20
146.25
11
2.45
21
146.25
0
LINE
8
back_outsideCutPath
10
2.45
20
146.25
11
2.45
21
132.75
0
LINE
8
back_outsideCutPath
10
2.45
20
132.75
11
0
21
132.75
0
LINE
8
back_outsideCutPath
10
0
20
132.75
11
0
21
119.25
0
LINE
8
back_outsideCutPath
10
0
20
119.25
11
2.45
21
119.25
0
LINE
8
back_outsideCutPath
10
2.45
20
119.25
11
2.45
21
105.75
0
LINE
8
back_outsideCutPath
10
2.45
20
105.75
11
0
21
105.75
0
LINE
8
back_outsideCutPath
10
0
20
105.75
11
0
21
92.25
0
LINE
8
back_outsideCutPath
10
0
20
92.25
11
0
21
86
0
LINE
8
back_outsideCutPath
10
0
20
86
11
12.75
21
86
0
LINE
8
back_outsideCutPath
10
12.75
20
86
11
12.75
21
88.45
0
LINE
8
back_outsideCutPath
10
12.75
20
88.45
11
26.25
21
88.45
0
LINE
8
back_outsideCutPath
10
26.25
20
88.45
11
26.25
21
86
0
LINE
8
back_outsideCutPath
10
26.25
20
86
11
39.75
21
86
0
LINE
8
back_outsideCutPath
10
39.75
20
86
11
39.75
21
88.45
0
LINE
8
back_outsideCutPath
10
39.75
20
88.45
11
53.25
21
88.45
0
LINE
8
back_outsideCutPath
10
53.25
20
88.45
11
53.25
21
86
0
LINE
8
back_outsideCutPath
10
53.25
20
86
11
66.75
21
86
0
LINE
8
back_outsideCutPath
10
66.75
20
86
11
66.75
21
88.45
0
LINE
8
back_outsideCutPath
10
66.75
20
88.45
11
80.25
21
88.45
0
LINE
8
back_outsideCutPath
10
80.25
20
88.45
11
80.25
21
86
0
LINE
8
back_outsideCutPath
10
80.25
20
86
11
93.75
21
86
0
LINE
8
back_outsideCutPath
10
93.75
20
86
11
93.75
21
88.45
0
LINE
8
back_outsideCutPath
10
93.75
20
88.45
11
107.25
21
88.45
0
LINE
8
back_outsideCutPath
10
107.25
20
88.45
11
107.25
21
86
0
LINE
8
back_outsideCutPath
10
107.25
20
86
11
120
21
86
0
LINE
8
back_outsideCutPath
10
120
20
86
11
120
21
105.75
0
LINE
8
back_outsideCutPath
10
120
20
105.75
11
117.55
21
105.75
0
LINE
8
back_outsideCutPath
10
117.55
20
105.75
11
117.55
21
119.25
0
LINE
8
back_outsideCutPath
10
117.55
20
119.25
11
120
21
119.25
0
LINE
8
back_outsideCutPath
10
120
20
119.25
11
120
21
132.75
0
LINE
8
back_outsideCutPath
10
120
20
132.75
11
117.55
21
132.75
0
LINE
8
back_outsideCutPath
10
117.55
20
132.75
11
117.55
21
146.25
0
LINE
8
back_outsideCutPath
10
117.55
20
146.25
11
120
21
146.25
0
LINE
8
back_outsideCutPath
10
120
20
146.25
11
120
21
159.75
0
LINE
8
back_outsideCutPath
10
120
20
159.75
11
120
21
166
0
LINE
8
back_outsideCutPath
10
120
20
166
11
107.25
21
166
0
LINE
8
back_outsideCutPath
10
107.25
20
166
11
107.25
21
163.55
0
LINE
8
back_outsideCutPath
10
107.25
20
163.55
11
93.75
21
163.55
0
LINE
8
back_outsideCutPath
10
93.75
20
163.55
11
93.75
21
166
0
LINE
8
back_outsideCutPath
10
93.75
20
166
11
80.25
21
166
0
LINE
8
back_outsideCutPath
10
80.25
20
166
11
80.25
21
163.55
0
LINE
8
back_outsideCutPath
10
80.25
20
163.55
11
66.75
21
163.55
0
LINE
8
back_outsideCutPath
10
66.75
20
163.55
11
66.75
21
166
0
LINE
8
back_outsideCutPath
10
66.75
20
166
11
53.25
21
166
0
LINE
8
back_outsideCutPath
10
53.25
20
166
11
53.25
21
163.55
0
LINE
8
back_outsideCutPath
10
53.25
20
163.55
11
39.75
21
163.55
0
LINE
8
back_outsideCutPath
10
39.75
20
163.55
11
39.75
21
166
0
LINE
8
back_outsideCutPath
10
39.75
20
166
11
26.25
21
166
0
LINE
8
back_outsideCutPath
10
26.25
20
166
11
26.25
21
163.55
0
LINE
8
back_outsideCutPath
10
26.25
20
163.55
11
12.75
21
163.55
0
LINE
8
back_outsideCutPath
10
12.75
20
163.55
11
12.75
21
166
0
LINE
8
back_outsideCutPath
10
12.75
20
166
11
0
21
166
0
LINE
8
back_labelLayer
10
44.7109375
20
121.1016508
11
44.6171875
21
121.1016508
0
LINE
8
back_labelLayer
10
44.6171875
20
121.1016508
11
44.34375
21
120.0000883
0
LINE
8
back_labelLayer
10
44.34375
20
120.0000883
11
43.4140625
21
120.0000883
0
LINE
8
back_labelLayer
10
43.4140625
20
120.0000883
11
43.4140625
21
132.1563383
0
LINE
8
back_labelLayer
10
43.4140625
20
132.1563383
11
44.7109375
21
132.1563383
0
LINE
8
back_labelLayer
10
44.7109375
20
132.1563383
11
44.7109375
21
129.2032133
0
LINE
8
back_labelLayer
10
44.6484375
20
127.4219633
11
44.7109375
21
127.4219633
0
ARC
8
back_labelLayer
10
47.437342
20
124.739703
40
3.9637012
50
74.2393355
51
90.5623777
0
ARC
8
back_labelLayer
10
47.6994354
20
125.7012043
40
2.9671715
50
38.5631327
51
74.0670403
0
ARC
8
back_labelLayer
10
47.0249501
20
125.1767534
40
3.8215107
50
16.4709337
51
38.4075242
0
ARC
8
back_labelLayer
10
45.0818729
20
124.5674602
40
5.8576984
50
5.1338399
51
16.7973508
0
ARC
8
back_labelLayer
10
42.6288439
20
124.3068839
40
8.3243
50
359.8779435
51
5.4093499
0
ARC
8
back_labelLayer
10
43.3493623
20
124.2442908
40
7.603895
50
350.6562921
51
0.3380242
0
ARC
8
back_labelLayer
10
46.0002174
20
123.7934105
40
4.9150291
50
335.8305902
51
350.8254897
0
ARC
8
back_labelLayer
10
47.1662731
20
123.2901235
40
3.645173
50
321.3161354
51
335.5436222
0
ARC
8
back_labelLayer
10
47.6120598
20
122.9268742
40
3.070154
50
274.0640117
51
321.4080996
0
ARC
8
back_labelLayer
10
47.4043833
20
124.2423878
40
4.3985534
50
269.9225498
51
275.5481397
0
ARC
8
back_labelLayer
10
47.3765682
20
123.777481
40
3.9337035
50
255.7755313
51
270.3185353
0
ARC
8
back_labelLayer
10
47.2643121
20
123.278741
40
3.4226987
50
245.9801827
51
255.5455802
0
ARC
8
back_labelLayer
10
47.0468796
20
122.7730971
40
2.8723436
50
215.5850144
51
245.836166
0
ARC
8
back_labelLayer
10
17.6719463
20
129.1803603
40
27.0390009
50
358.1123208
51
0.0484255
0
ARC
8
back_labelLayer
10
25.197585
20
128.9276989
40
19.509124
50
355.7238617
51
358.125912
0
ARC
8
back_labelLayer
10
28.5659926
20
128.6957991
40
16.1328142
50
355.4712507
51
355.6531662
0
ARC
8
back_labelLayer
10
47.1295529
20
125.735398
40
2.9485933
50
95.1835142
51
145.1109036
0
ARC
8
back_labelLayer
10
47.3887245
20
124.2739011
40
4.4293229
50
89.8743571
51
96.8145377
0
ARC
8
back_labelLayer
10
47.1837876
20
123.9730382
40
3.6443387
50
89.5731496
51
100.7324069
0
ARC
8
back_labelLayer
10
46.9140051
20
125.3360804
40
2.2549278
50
100.4469488
51
119.6700771
0
ARC
8
back_labelLayer
10
46.6638368
20
125.8038007
40
1.7247538
50
120.1403097
51
142.4248986
0
ARC
8
back_labelLayer
10
47.0777185
20
125.5300042
40
2.2200212
50
143.3382198
51
161.2559897
0
ARC
8
back_labelLayer
10
48.8085021
20
124.9155166
40
4.0565517
50
160.8926173
51
171.2334205
0
ARC
8
back_labelLayer
10
51.6978449
20
124.4493973
40
6.9832099
50
171.066774
51
177.8456894
0
ARC
8
back_labelLayer
10
54.7027297
20
124.296573
40
9.9917947
50
177.6176947
51
180.0425612
0
ARC
8
back_labelLayer
10
53.2856736
20
124.2556657
40
8.5748015
50
179.7762566
51
185.7075354
0
ARC
8
back_labelLayer
10
49.904955
20
123.9073314
40
5.1762112
50
185.5924958
51
194.2050777
0
ARC
8
back_labelLayer
10
47.739281
20
123.3452627
40
2.9388586
50
193.9430359
51
208.0218247
0
ARC
8
back_labelLayer
10
46.86305
20
122.8995026
40
1.9560119
50
208.553694
51
217.5605201
0
ARC
8
back_labelLayer
10
46.79165
20
122.869802
40
1.8814131
50
218.1690368
51
253.8047259
0
ARC
8
back_labelLayer
10
47.1406147
20
123.9456917
40
3.0121421
50
253.1382275
51
266.8483353
0
ARC
8
back_labelLayer
10
47.238472
20
125.0997263
40
4.1699521
50
266.3775733
51
270.0510514
0
ARC
8
back_labelLayer
10
47.2698518
20
123.514935
40
2.5853072
50
269.3868901
51
285.8630675
0
ARC
8
back_labelLayer
10
47.4619235
20
122.8207611
40
1.865075
50
286.0162924
51
326.8497277
0
ARC
8
back_labelLayer
10
46.5348827
20
123.434891
40
2.9770675
50
326.7105112
51
343.6661763
0
ARC
8
back_labelLayer
10
44.7995256
20
123.9651593
40
4.7915591
50
343.4171428
51
353.6369302
0
ARC
8
back_labelLayer
10
42.1784469
20
124.2761705
40
7.4309831
50
353.4934758
51
0.2205584
0
ARC
8
back_labelLayer
10
41.9473612
20
124.3357881
40
7.6620766
50
359.7680941
51
6.3095149
0
ARC
8
back_labelLayer
10
44.8335244
20
124.6669905
40
4.7570119
50
6.164876
51
16.0396504
0
ARC
8
back_labelLayer
10
46.6927267
20
125.2148969
40
2.8188287
50
15.7779603
51
32.0151253
0
ARC
8
back_labelLayer
10
47.2725859
20
125.5469741
40
2.1512681
50
32.7032831
51
35.5242599
0
ARC
8
back_labelLayer
10
47.4845392
20
125.6976218
40
1.8912323
50
35.5408432
51
79.8011227
0
ARC
8
back_labelLayer
10
47.2305662
20
124.6179309
40
2.9994091
50
78.6781377
51
90.374958
0
LINE
8
back_labelLayer
10
59.4453125
20
120.0000883
11
58.484375
21
120.0000883
0
LINE
8
back_labelLayer
10
58.484375
20
120.0000883
11
58.2265625
21
121.2188383
0
LINE
8
back_labelLayer
10
58.2265625
20
121.2188383
11
58.1640625
21
121.2188383
0
LINE
8
back_labelLayer
10
56.7265625
20
125.0860258
11
58.1796875
21
125.1329008
0
LINE
8
back_labelLayer
10
58.1796875
20
125.1329008
11
58.1796875
21
125.6641508
0
LINE
8
back_labelLayer
10
53.9375
20
126.9766508
11
53.5390625
21
127.9688383
0
LINE
8
back_labelLayer
10
59.4453125
20
125.8438383
11
59.4453125
21
120.0000883
0
LINE
8
back_labelLayer
10
58.1484375
20
123.4375883
11
58.1484375
21
124.2110258
0
LINE
8
back_labelLayer
10
58.1484375
20
124.2110258
11
56.8515625
21
124.1563383
0
ARC
8
back_labelLayer
10
53.9445474
20
124.5503505
40
5.3761772
50
314.744501
51
321.7071925
0
ARC
8
back_labelLayer
10
55.2653835
20
123.2082781
40
3.4931745
50
304.8485642
51
314.8530758
0
ARC
8
back_labelLayer
10
55.8998915
20
122.3051221
40
2.3894266
50
294.3932745
51
304.7371393
0
ARC
8
back_labelLayer
10
55.6831142
20
122.8668124
40
2.990704
50
281.2979802
51
293.7313404
0
ARC
8
back_labelLayer
10
55.3965509
20
124.2556588
40
4.4087869
50
272.9335335
51
281.4138906
0
ARC
8
back_labelLayer
10
55.301566
20
125.6802818
40
5.8364454
50
269.9539485
51
273.1490324
0
ARC
8
back_labelLayer
10
55.2687614
20
123.8236843
40
3.9799453
50
258.6719908
51
270.4047305
0
ARC
8
back_labelLayer
10
54.9923079
20
122.5012371
40
2.6289828
50
238.3272929
51
258.9183814
0
ARC
8
back_labelLayer
10
54.8018004
20
122.1536802
40
2.2332544
50
227.7689535
51
237.8050163
0
ARC
8
back_labelLayer
10
54.742211
20
122.0704933
40
2.1316406
50
192.0827614
51
227.4520703
0
ARC
8
back_labelLayer
10
55.8411915
20
122.3414031
40
3.263169
50
179.5457148
51
192.6949391
0
ARC
8
back_labelLayer
10
54.8202474
20
122.4595557
40
2.2440206
50
115.4904586
51
182.3568144
0
ARC
8
back_labelLayer
10
55.944078
20
120.3982202
40
4.5901181
50
101.3568219
51
117.0798687
0
ARC
8
back_labelLayer
10
56.8466195
20
116.1805535
40
8.9030951
50
92.4696359
51
101.7064824
0
ARC
8
back_labelLayer
10
57.1059999
20
112.4238704
40
12.6678391
50
91.7164266
51
92.9095602
0
ARC
8
back_labelLayer
10
54.4548199
20
125.6840892
40
3.724921
50
359.6933106
51
8.0035887
0
ARC
8
back_labelLayer
10
55.8638889
20
125.8893634
40
2.3010067
50
7.8272241
51
20.60421
0
ARC
8
back_labelLayer
10
56.6612426
20
126.194393
40
1.4473221
50
20.4094038
51
41.4479286
0
ARC
8
back_labelLayer
10
56.779055
20
126.2591502
40
1.3164787
50
42.7295592
51
71.0380164
0
ARC
8
back_labelLayer
10
56.5016858
20
125.504974
40
2.1199278
50
70.5716549
51
83.9928397
0
ARC
8
back_labelLayer
10
56.3691774
20
124.4285931
40
3.2043227
50
83.6506973
51
90.1752755
0
ARC
8
back_labelLayer
10
56.3924225
20
123.4106911
40
4.222339
50
90.4484491
51
103.7665485
0
ARC
8
back_labelLayer
10
56.8889543
20
121.3168038
40
6.3742538
50
103.6226692
51
112.4319945
0
ARC
8
back_labelLayer
10
57.7400766
20
119.1677989
40
8.685491
50
112.2122504
51
115.9640993
0
ARC
8
back_labelLayer
10
56.3770759
20
122.7057775
40
5.9794756
50
106.3568562
51
118.3349892
0
ARC
8
back_labelLayer
10
56.6317591
20
121.919069
40
6.806105
50
104.5162192
51
106.5489878
0
ARC
8
back_labelLayer
10
56.4449898
20
122.6972373
40
6.0059807
50
90.0714512
51
104.6521049
0
ARC
8
back_labelLayer
10
56.4685596
20
123.2260051
40
5.4772962
50
81.5679904
51
90.3249037
0
ARC
8
back_labelLayer
10
56.7852487
20
125.2891534
40
3.3900283
50
68.2273435
51
81.74942
0
ARC
8
back_labelLayer
10
57.2263449
20
126.386638
40
2.2072231
50
47.8683207
51
68.2934232
0
ARC
8
back_labelLayer
10
57.2979348
20
126.5295812
40
2.0536365
50
19.2331075
51
46.6741254
0
ARC
8
back_labelLayer
10
56.1053378
20
126.085935
40
3.3259144
50
6.3379308
51
19.6815078
0
ARC
8
back_labelLayer
10
54.342418
20
125.8614122
40
5.1029248
50
359.8026789
51
6.6583549
0
ARC
8
back_labelLayer
10
55.5809121
20
124.4847245
40
3.5706701
50
269.5791896
51
282.0413583
0
ARC
8
back_labelLayer
10
55.8413675
20
123.3294553
40
2.3865236
50
281.7120852
51
306.4594002
0
ARC
8
back_labelLayer
10
55.9568549
20
123.1395312
40
2.1652352
50
306.9880866
51
313.8558897
0
ARC
8
back_labelLayer
10
55.9431183
20
123.1355918
40
2.1719485
50
314.1891913
51
347.4269947
0
ARC
8
back_labelLayer
10
54.8551347
20
123.4082366
40
3.2933221
50
346.917751
51
0.2824611
0
ARC
8
back_labelLayer
10
54.0181153
20
123.4375803
40
4.1303221
50
359.8181646
51
0.0001108
0
ARC
8
back_labelLayer
10
57.1600506
20
114.6389339
40
9.5224026
50
91.8564807
51
96.447853
0
ARC
8
back_labelLayer
10
56.7306215
20
118.3548998
40
5.7817255
50
96.3545638
51
102.995324
0
ARC
8
back_labelLayer
10
56.1476914
20
120.8315964
40
3.2373956
50
102.7995497
51
113.2433252
0
ARC
8
back_labelLayer
10
55.6671505
20
121.9808688
40
1.9917986
50
113.5887
51
121.6804922
0
ARC
8
back_labelLayer
10
55.3332737
20
122.4893564
40
1.3838402
50
120.9734174
51
172.4179646
0
ARC
8
back_labelLayer
10
55.9858639
20
122.3590078
40
2.0483771
50
171.21224
51
180.2057854
0
ARC
8
back_labelLayer
10
55.7908282
20
122.3363382
40
1.8533915
50
179.5266212
51
192.7786986
0
ARC
8
back_labelLayer
10
55.1638531
20
122.1843582
40
1.2083673
50
192.3264618
51
222.0580029
0
ARC
8
back_labelLayer
10
55.1172563
20
122.1565089
40
1.1551632
50
222.5806518
51
229.2545181
0
ARC
8
back_labelLayer
10
55.2748053
20
122.3593582
40
1.4117376
50
229.7836767
51
254.2724618
0
ARC
8
back_labelLayer
10
55.4846962
20
123.0587983
40
2.1419217
50
253.9396806
51
266.4533432
0
ARC
8
back_labelLayer
10
55.5516803
20
123.8309041
40
2.9167548
50
266.0782961
51
270.0590717
0
LINE
8
back_labelLayer
10
67.828125
20
128.2735258
11
67.4296875
21
127.1719633
0
LINE
8
back_labelLayer
10
67.703125
20
121.4375883
11
67.703125
21
120.2891508
0
ARC
8
back_labelLayer
10
65.4976974
20
124.6906054
40
4.8469436
50
256.4243796
51
270.4889831
0
ARC
8
back_labelLayer
10
65.1103806
20
123.17894
40
3.2866697
50
221.797623
51
256.8020567
0
ARC
8
back_labelLayer
10
65.4854523
20
123.4560666
40
3.7512434
50
196.0166605
51
221.134924
0
ARC
8
back_labelLayer
10
67.3705225
20
124.0322425
40
5.7222138
50
183.5913699
51
196.3539657
0
ARC
8
back_labelLayer
10
69.4822654
20
124.2182848
40
7.8416451
50
179.9388733
51
183.981523
0
ARC
8
back_labelLayer
10
68.796123
20
124.2727211
40
7.1556463
50
169.8978391
51
180.3688908
0
ARC
8
back_labelLayer
10
66.3050768
20
124.733529
40
4.6224227
50
153.087513
51
170.1051457
0
ARC
8
back_labelLayer
10
65.3599274
20
125.1851471
40
3.5753066
50
138.65502
51
152.6853568
0
ARC
8
back_labelLayer
10
65.1835208
20
125.3137002
40
3.3580086
50
101.4912937
51
138.3133938
0
ARC
8
back_labelLayer
10
65.5884995
20
123.6282151
40
5.0907539
50
89.5891877
51
102.1787594
0
ARC
8
back_labelLayer
10
65.6196403
20
122.8664087
40
5.852432
50
77.7702433
51
89.9475283
0
ARC
8
back_labelLayer
10
65.5088702
20
122.2553123
40
6.4731597
50
74.6796763
51
77.9578351
0
ARC
8
back_labelLayer
10
66.1072129
20
124.4229958
40
4.2244186
50
70.0945995
51
74.7386074
0
ARC
8
back_labelLayer
10
66.6763724
20
125.9827863
40
2.5640387
50
63.5034352
51
70.186143
0
ARC
8
back_labelLayer
10
66.9534656
20
126.5622718
40
1.9218271
50
62.9274303
51
63.1890112
0
ARC
8
back_labelLayer
10
65.2992482
20
121.8103844
40
5.7693413
50
68.329454
51
74.8831167
0
ARC
8
back_labelLayer
10
64.9949478
20
120.7313979
40
6.8903597
50
74.7801514
51
77.4498037
0
ARC
8
back_labelLayer
10
65.3144419
20
122.2311055
40
5.3570801
50
77.2998698
51
81.7344998
0
ARC
8
back_labelLayer
10
65.547519
20
123.8551702
40
3.7163789
50
81.6910228
51
87.5079043
0
ARC
8
back_labelLayer
10
65.5924877
20
124.6956827
40
2.8747184
50
87.6749117
51
89.9748404
0
ARC
8
back_labelLayer
10
65.5294596
20
124.6944609
40
2.8766584
50
88.7193918
51
112.5667637
0
ARC
8
back_labelLayer
10
65.325054
20
125.3702796
40
2.1752882
50
114.426576
51
161.6632836
0
ARC
8
back_labelLayer
10
67.3556271
20
124.575492
40
4.354333
50
160.1418491
51
175.1368161
0
ARC
8
back_labelLayer
10
70.1504247
20
124.2616575
40
7.1660758
50
174.5309836
51
180.1549654
0
ARC
8
back_labelLayer
10
69.2650073
20
124.2098417
40
6.280716
50
179.7041193
51
188.0743586
0
ARC
8
back_labelLayer
10
67.0027758
20
123.8788535
40
3.9944332
50
187.9315202
51
200.3885256
0
ARC
8
back_labelLayer
10
65.7795609
20
123.4257169
40
2.6899851
50
200.4183561
51
216.6392776
0
ARC
8
back_labelLayer
10
65.2667604
20
123.0591284
40
2.059773
50
216.9695397
51
261.3103027
0
ARC
8
back_labelLayer
10
65.4930705
20
124.1142285
40
3.1376124
50
260.1359577
51
270.2692033
0
ARC
8
back_labelLayer
10
65.4826241
20
126.4054627
40
5.4288704
50
270.2658364
51
286.2891501
0
ARC
8
back_labelLayer
10
65.1525956
20
127.63626
40
6.7028899
50
286.0460515
51
292.3653954
0
ARC
8
back_labelLayer
10
66.0315177
20
123.5776008
40
3.6889259
50
282.0344333
51
296.9454504
0
ARC
8
back_labelLayer
10
65.6521335
20
125.2873478
40
5.4402178
50
272.5980667
51
282.1878304
0
ARC
8
back_labelLayer
10
65.5433399
20
126.956003
40
7.112166
50
269.9655414
51
272.8642614
0
LINE
8
back_labelLayer
10
70.953125
20
124.3829008
11
71.015625
21
124.3829008
0
LINE
8
back_labelLayer
10
72.0390625
20
125.6329008
11
74.8046875
21
128.5625883
0
LINE
8
back_labelLayer
10
74.8046875
20
128.5625883
11
76.34375
21
128.5625883
0
LINE
8
back_labelLayer
10
76.34375
20
128.5625883
11
72.875
21
124.9141508
0
LINE
8
back_labelLayer
10
72.875
20
124.9141508
11
76.5859375
21
120.0000883
0
LINE
8
back_labelLayer
10
76.5859375
20
120.0000883
11
75.015625
21
120.0000883
0
LINE
8
back_labelLayer
10
75.015625
20
120.0000883
11
71.9921875
21
124.0469633
0
LINE
8
back_labelLayer
10
71.9921875
20
124.0469633
11
71.015625
21
123.2032133
0
LINE
8
back_labelLayer
10
71.015625
20
123.2032133
11
71.015625
21
120.0000883
0
LINE
8
back_labelLayer
10
71.015625
20
120.0000883
11
69.734375
21
120.0000883
0
LINE
8
back_labelLayer
10
69.734375
20
120.0000883
11
69.734375
21
132.1563383
0
LINE
8
back_labelLayer
10
69.734375
20
132.1563383
11
71.015625
21
132.1563383
0
LINE
8
back_labelLayer
10
71.015625
20
132.1563383
11
71.015625
21
125.7110258
0
ARC
8
back_labelLayer
10
77.2822224
20
119.9471286
40
7.6776506
50
142.3234142
51
144.7074679
0
ARC
8
back_labelLayer
10
81.3703143
20
116.7938784
40
12.8405449
50
140.4330905
51
142.3365467
0
ARC
8
back_labelLayer
10
86.6976098
20
112.408592
40
19.7405962
50
139.2798732
51
140.4703567
0
ARC
8
back_labelLayer
10
92.8568447
20
107.1121191
40
27.8639447
50
138.341738
51
139.2877753
0
ARC
8
back_labelLayer
10
62.372827
20
125.7272072
40
8.6428132
50
358.2739867
51
359.8927286
0
ARC
8
back_labelLayer
10
55.649482
20
125.9145839
40
15.3687589
50
357.5041774
51
358.3307124
0
ARC
8
back_labelLayer
10
45.586549
20
126.3590531
40
25.441502
50
356.6325368
51
357.4910219
0
ARC
8
back_labelLayer
10
28.8627908
20
127.3344256
40
42.1936778
50
356.0329088
51
356.6442918
0
ARC
8
back_labelLayer
10
16.7085813
20
128.1563118
40
54.3756301
50
356.0207462
51
356.0549878
0
LINE
8
right_outsideCutPath
10
125.45
20
166
11
125.45
21
146.25
0
LINE
8
right_outsideCutPath
10
125.45
20
146.25
11
123
21
146.25
0
LINE
8
right_outsideCutPath
10
123
20
146.25
11
123
21
132.75
0
LINE
8
right_outsideCutPath
10
123
20
132.75
11
125.45
21
132.75
0
LINE
8
right_outsideCutPath
10
125.45
20
132.75
11
125.45
21
119.25
0
LINE
8
right_outsideCutPath
10
125.45
20
119.25
11
123
21
119.25
0
LINE
8
right_outsideCutPath
10
123
20
119.25
11
123
21
105.75
0
LINE
8
right_outsideCutPath
10
123
20
105.75
11
125.45
21
105.75
0
LINE
8
right_outsideCutPath
10
125.45
20
105.75
11
125.45
21
92.25
0
LINE
8
right_outsideCutPath
10
125.45
20
92.25
11
125.45
21
86
0
LINE
8
right_outsideCutPath
10
125.45
20
86
11
136.25
21
86
0
LINE
8
right_outsideCutPath
10
136.25
20
86
11
136.25
21
88.45
0
LINE
8
right_outsideCutPath
10
136.25
20
88.45
11
149.75
21
88.45
0
LINE
8
right_outsideCutPath
10
149.75
20
88.45
11
149.75
21
86
0
LINE
8
right_outsideCutPath
10
149.75
20
86
11
160.55
21
86
0
LINE
8
right_outsideCutPath
10
160.55
20
86
11
160.55
21
105.75
0
LINE
8
right_outsideCutPath
10
160.55
20
105.75
11
163
21
105.75
0
LINE
8
right_outsideCutPath
10
163
20
105.75
11
163
21
119.25
0
LINE
8
right_outsideCutPath
10
163
20
119.25
11
160.55
21
119.25
0
LINE
8
right_outsideCutPath
10
160.55
20
119.25
11
160.55
21
132.75
0
LINE
8
right_outsideCutPath
10
160.55
20
132.75
11
163
21
132.75
0
LINE
8
right_outsideCutPath
10
163
20
132.75
11
163
21
146.25
0
LINE
8
right_outsideCutPath
10
163
20
146.25
11
160.55
21
146.25
0
LINE
8
right_outsideCutPath
10
160.55
20
146.25
11
160.55
21
159.75
0
LINE
8
right_outsideCutPath
10
160.55
20
159.75
11
160.55
21
166
0
LINE
8
right_outsideCutPath
10
160.55
20
166
11
149.75
21
166
0
LINE
8
right_outsideCutPath
10
149.75
20
166
11
149.75
21
163.55
0
LINE
8
right_outsideCutPath
10
149.75
20
163.55
11
136.25
21
163.55
0
LINE
8
right_outsideCutPath
10
136.25
20
163.55
11
136.25
21
166
0
LINE
8
right_outsideCutPath
10
136.25
20
166
11
125.45
21
166
0
LINE
8
right_labelLayer
10
137.1894531
20
128.2343986
11
137.0996094
21
127.6328361
0
LINE
8
right_labelLayer
10
135.3730469
20
126.2187736
11
135.3730469
21
123.9218986
0
LINE
8
right_labelLayer
10
135.3730469
20
123.9218986
11
134.7246094
21
123.9218986
0
LINE
8
right_labelLayer
10
134.7246094
20
123.9218986
11
134.7246094
21
128.2031486
0
LINE
8
right_labelLayer
10
134.7246094
20
128.2031486
11
135.2597656
21
128.2031486
0
LINE
8
right_labelLayer
10
135.2597656
20
128.2031486
11
135.3339844
21
127.4101798
0
LINE
8
right_labelLayer
10
135.3339844
20
127.4101798
11
135.3652344
21
127.4101798
0
ARC
8
right_labelLayer
10
136.6843922
20
125.3044575
40
2.9768236
50
84.9922466
51
90.1281461
0
ARC
8
right_labelLayer
10
136.7558836
20
126.1053981
40
2.1727
50
78.4891613
51
85.0266334
0
ARC
8
right_labelLayer
10
136.4784103
20
124.8433864
40
2.857782
50
77.4453314
51
81.6360677
0
ARC
8
right_labelLayer
10
136.6029109
20
125.7015811
40
1.9906057
50
81.5883785
51
87.1916038
0
ARC
8
right_labelLayer
10
136.6299609
20
126.1705702
40
1.5208597
50
87.343762
51
89.9661514
0
ARC
8
right_labelLayer
10
136.6236732
20
126.5679026
40
1.1235502
50
89.6335396
51
137.0880816
0
ARC
8
right_labelLayer
10
136.899413
20
126.2578236
40
1.5371308
50
135.6208551
51
138.8376692
0
ARC
8
right_labelLayer
10
136.8590091
20
126.297264
40
1.4807566
50
138.9575801
51
174.5422129
0
ARC
8
right_labelLayer
10
137.3412379
20
126.2218077
40
1.9681934
50
173.6907399
51
180.088326
0
ARC
8
right_labelLayer
10
137.2730737
20
126.3353115
40
2.1897929
50
139.4139141
51
150.6032802
0
ARC
8
right_labelLayer
10
136.8804533
20
126.6717444
40
1.6727457
50
124.2322119
51
139.4160448
0
ARC
8
right_labelLayer
10
136.6705073
20
126.988653
40
1.2926407
50
89.6796601
51
124.4405586
0
LINE
8
right_labelLayer
10
138.6386719
20
128.2031486
11
138.6386719
21
123.9218986
0
LINE
8
right_labelLayer
10
138.6386719
20
123.9218986
11
137.9902344
21
123.9218986
0
LINE
8
right_labelLayer
10
137.9902344
20
123.9218986
11
137.9902344
21
128.2031486
0
LINE
8
right_labelLayer
10
137.9902344
20
128.2031486
11
138.6386719
21
128.2031486
0
ARC
8
right_labelLayer
10
138.6540966
20
129.3677493
40
0.7185635
50
170.8453219
51
180.3543861
0
ARC
8
right_labelLayer
10
138.385089
20
129.4127265
40
0.4458294
50
155.9680062
51
171.0516127
0
ARC
8
right_labelLayer
10
138.254796
20
129.47053
40
0.30329
50
133.787967
51
155.9172865
0
ARC
8
right_labelLayer
10
138.3029
20
129.4173494
40
0.3749746
50
92.6446299
51
133.4710718
0
ARC
8
right_labelLayer
10
138.3180967
20
129.2979439
40
0.4950485
50
89.9696035
51
93.7640043
0
ARC
8
right_labelLayer
10
138.3242798
20
129.4109871
40
0.3820511
50
46.3708172
51
90.8879144
0
ARC
8
right_labelLayer
10
138.3623014
20
129.4502402
40
0.3274048
50
17.725251
51
46.4472387
0
ARC
8
right_labelLayer
10
138.1849916
20
129.3891816
40
0.5149037
50
4.9428036
51
18.1901042
0
ARC
8
right_labelLayer
10
137.9594605
20
129.3647986
40
0.7417128
50
359.8846096
51
5.3182539
0
ARC
8
right_labelLayer
10
138.0302832
20
129.3587499
40
0.6709041
50
349.8343763
51
0.3890006
0
ARC
8
right_labelLayer
10
138.2745334
20
129.3131838
40
0.4224499
50
332.6321264
51
350.0706428
0
ARC
8
right_labelLayer
10
138.3695923
20
129.2662444
40
0.3164589
50
313.6155238
51
332.2676358
0
ARC
8
right_labelLayer
10
138.3237811
20
129.3079579
40
0.3782856
50
269.1787923
51
314.2807694
0
ARC
8
right_labelLayer
10
138.314061
20
129.3415842
40
0.4118956
50
250.4999444
51
270.5979238
0
ARC
8
right_labelLayer
10
138.3015944
20
129.2949727
40
0.3638161
50
225.1299787
51
249.9002685
0
ARC
8
right_labelLayer
10
138.2820783
20
129.2734159
40
0.3347727
50
197.7933504
51
224.8942901
0
ARC
8
right_labelLayer
10
138.4647433
20
129.3360129
40
0.5278422
50
184.9924622
51
198.2039865
0
ARC
8
right_labelLayer
10
138.7011171
20
129.3617087
40
0.7655719
50
179.8805444
51
185.3687618
0
LINE
8
right_labelLayer
10
142.0371094
20
128.2031486
11
143.5175781
21
128.2031486
0
LINE
8
right_labelLayer
10
143.5175781
20
128.2031486
11
143.5175781
21
127.7929923
0
LINE
8
right_labelLayer
10
143.5175781
20
127.7929923
11
142.7246094
21
127.6992423
0
LINE
8
right_labelLayer
10
141.2636719
20
124.6015861
11
142.0214844
21
124.6015861
0
LINE
8
right_labelLayer
10
141.8144531
20
124.0195548
11
141.0371094
21
124.0195548
0
ARC
8
right_labelLayer
10
141.8982719
20
127.045289
40
1.0537972
50
29.4584503
51
38.3576618
0
ARC
8
right_labelLayer
10
141.4677051
20
126.7994935
40
1.5495791
50
23.1844168
51
29.5423005
0
ARC
8
right_labelLayer
10
141.0571147
20
126.6173946
40
1.9987105
50
21.2505275
51
23.3491602
0
ARC
8
right_labelLayer
10
141.7551718
20
126.8950141
40
1.247509
50
6.85052
51
20.9871658
0
ARC
8
right_labelLayer
10
141.4038643
20
126.84738
40
1.6019992
50
359.8710145
51
7.0433033
0
ARC
8
right_labelLayer
10
141.5194287
20
126.8283163
40
1.486511
50
342.5649846
51
0.5957914
0
ARC
8
right_labelLayer
10
141.7935864
20
126.752611
40
1.2023065
50
310.609752
51
342.0923881
0
ARC
8
right_labelLayer
10
141.6398487
20
126.9314337
40
1.4381301
50
284.9315588
51
310.6223112
0
ARC
8
right_labelLayer
10
141.4474613
20
127.6055847
40
2.1391241
50
272.5335216
51
285.2579631
0
ARC
8
right_labelLayer
10
141.3980024
20
128.2812256
40
2.8163585
50
269.9691177
51
272.9311402
0
ARC
8
right_labelLayer
10
141.3918615
20
127.5488737
40
2.0840115
50
263.4837468
51
270.1270962
0
ARC
8
right_labelLayer
10
141.3579283
20
127.2265005
40
1.7598723
50
259.4964338
51
263.3902898
0
ARC
8
right_labelLayer
10
141.5680007
20
124.4716394
40
1.1538634
50
117.3934951
51
128.4095706
0
ARC
8
right_labelLayer
10
141.2709539
20
124.8401469
40
0.6805665
50
128.088226
51
147.1400046
0
ARC
8
right_labelLayer
10
141.1109187
20
124.9475432
40
0.4878769
50
147.536901
51
180.2592071
0
ARC
8
right_labelLayer
10
140.9590982
20
124.9411827
40
0.336077
50
179.2918906
51
198.358091
0
ARC
8
right_labelLayer
10
140.8961744
20
124.9246456
40
0.2711785
50
199.2291879
51
239.5691196
0
ARC
8
right_labelLayer
10
140.9484045
20
124.9968308
40
0.3599738
50
238.2203425
51
239.845598
0
ARC
8
right_labelLayer
10
140.9899686
20
125.0823545
40
0.4548572
50
240.7301368
51
254.5027299
0
ARC
8
right_labelLayer
10
141.1141184
20
125.5101728
40
0.900309
50
254.1637614
51
262.2122557
0
ARC
8
right_labelLayer
10
141.2124535
20
126.197017
40
1.5941491
50
262.0556165
51
267.208298
0
ARC
8
right_labelLayer
10
141.2599519
20
127.0681325
40
2.4665493
50
267.0918211
51
270.0864123
0
ARC
8
right_labelLayer
10
142.0356577
20
121.9472722
40
2.6543518
50
81.5744713
51
90.3059423
0
ARC
8
right_labelLayer
10
142.1812564
20
122.8968477
40
1.6936982
50
68.3671403
51
81.7399556
0
ARC
8
right_labelLayer
10
142.3714219
20
123.3828372
40
1.1718357
50
52.1879006
51
68.2501575
0
ARC
8
right_labelLayer
10
142.5044789
20
123.5621206
40
0.9486355
50
8.6201129
51
51.8982595
0
ARC
8
right_labelLayer
10
142.0381202
20
123.4634441
40
1.4247847
50
359.7430626
51
9.7326075
0
ARC
8
right_labelLayer
10
142.0590142
20
123.4394079
40
1.4039873
50
340.526852
51
0.7201799
0
ARC
8
right_labelLayer
10
142.2652898
20
123.3880481
40
1.1925631
50
302.9903841
51
339.5494328
0
ARC
8
right_labelLayer
10
142.0496597
20
123.6618608
40
1.5399648
50
303.1862281
51
304.1725659
0
ARC
8
right_labelLayer
10
141.8469394
20
124.0126258
40
1.9446084
50
286.2542385
51
302.5280005
0
ARC
8
right_labelLayer
10
141.4796876
20
125.2239868
40
3.2103725
50
276.4939443
51
286.4953956
0
ARC
8
right_labelLayer
10
141.2505382
20
127.1395163
40
5.1395399
50
269.7544902
51
276.6169764
0
ARC
8
right_labelLayer
10
141.2114022
20
125.6330052
40
3.6330219
50
262.5634692
51
270.2698933
0
ARC
8
right_labelLayer
10
141.0334667
20
124.3141438
40
2.302231
50
251.2102206
51
262.7063575
0
ARC
8
right_labelLayer
10
140.7769918
20
123.5613492
40
1.5069456
50
235.9667603
51
251.2229135
0
ARC
8
right_labelLayer
10
140.5051575
20
123.1735515
40
1.0334671
50
208.9036033
51
236.4231727
0
ARC
8
right_labelLayer
10
140.530116
20
123.1630923
40
1.0504756
50
182.2080226
51
207.7461445
0
ARC
8
right_labelLayer
10
140.8477849
20
123.194821
40
1.3692693
50
179.9784466
51
183.0225882
0
ARC
8
right_labelLayer
10
140.4698552
20
123.2127311
40
0.9914922
50
138.3916098
51
181.0052659
0
ARC
8
right_labelLayer
10
140.5745573
20
123.1186362
40
1.1322607
50
113.8121347
51
138.3496664
0
ARC
8
right_labelLayer
10
140.7731711
20
122.6897442
40
1.6048537
50
102.2871352
51
114.1172485
0
ARC
8
right_labelLayer
10
140.7107613
20
124.8702203
40
0.6729954
50
216.5861808
51
245.496818
0
ARC
8
right_labelLayer
10
140.8066105
20
124.9516004
40
0.798506
50
215.4648265
51
217.1757111
0
ARC
8
right_labelLayer
10
140.6466281
20
124.8360468
40
0.6011615
50
182.1766745
51
215.341606
0
ARC
8
right_labelLayer
10
140.7895546
20
124.8513741
40
0.7446328
50
179.9836864
51
182.9375103
0
ARC
8
right_labelLayer
10
140.7864212
20
124.8578542
40
0.7415259
50
161.7226071
51
180.4843313
0
ARC
8
right_labelLayer
10
140.7048872
20
124.8801029
40
0.6571427
50
144.4962885
51
161.3351106
0
ARC
8
right_labelLayer
10
140.92222
20
124.7181295
40
0.9281527
50
132.7259152
51
144.1480171
0
ARC
8
right_labelLayer
10
141.2705504
20
124.3461522
40
1.4377537
50
125.2212788
51
132.8654952
0
ARC
8
right_labelLayer
10
141.6207747
20
123.8598143
40
2.0370527
50
121.2352953
51
125.3793662
0
ARC
8
right_labelLayer
10
140.9999354
20
126.6516266
40
1.1367629
50
215.1640769
51
247.4747933
0
ARC
8
right_labelLayer
10
141.2121715
20
126.8229022
40
1.4090205
50
212.4713718
51
215.8874144
0
ARC
8
right_labelLayer
10
141.1563322
20
126.7829567
40
1.3404705
50
183.0160915
51
212.3123031
0
ARC
8
right_labelLayer
10
141.4505862
20
126.8157461
40
1.6361332
50
179.9760553
51
183.6205791
0
ARC
8
right_labelLayer
10
141.6878325
20
126.8322532
40
1.8734462
50
166.8195792
51
180.4839338
0
ARC
8
right_labelLayer
10
141.066337
20
126.9891671
40
1.2325933
50
132.3288026
51
167.3340697
0
ARC
8
right_labelLayer
10
141.1494835
20
126.8696494
40
1.3770726
50
106.2189001
51
131.5377602
0
ARC
8
right_labelLayer
10
141.3598626
20
126.1884574
40
2.0899478
50
93.6329651
51
106.5408646
0
ARC
8
right_labelLayer
10
141.4285403
20
125.4174427
40
2.8638325
50
89.9379737
51
94.0267909
0
ARC
8
right_labelLayer
10
141.4396625
20
125.7957665
40
2.4855201
50
82.5852568
51
90.18492
0
ARC
8
right_labelLayer
10
141.5156094
20
126.3833964
40
1.893003
50
74.00889
51
82.5694479
0
ARC
8
right_labelLayer
10
140.7547026
20
123.194292
40
0.6512472
50
179.2207873
51
200.9356007
0
ARC
8
right_labelLayer
10
140.6772573
20
123.1763587
40
0.5726112
50
202.0286567
51
236.14573
0
ARC
8
right_labelLayer
10
140.794068
20
123.3246978
40
0.7610091
50
235.0638204
51
238.5037543
0
ARC
8
right_labelLayer
10
140.9296726
20
123.5669321
40
1.0384592
50
239.1066491
51
254.4862605
0
ARC
8
right_labelLayer
10
141.110591
20
124.1907307
40
1.6879373
50
254.2323613
51
263.4937008
0
ARC
8
right_labelLayer
10
141.2242346
20
125.1532715
40
2.6571586
50
263.4108186
51
270.145743
0
ARC
8
right_labelLayer
10
141.2362041
20
125.7264637
40
3.2303463
50
269.9075819
51
270.0021989
0
ARC
8
right_labelLayer
10
141.2518684
20
126.8551932
40
4.3591036
50
269.795739
51
275.39914
0
ARC
8
right_labelLayer
10
141.415015
20
125.1803473
40
2.6763418
50
275.2957191
51
283.3516055
0
ARC
8
right_labelLayer
10
141.6808213
20
124.0855442
40
1.5497592
50
283.1370579
51
295.8573246
0
ARC
8
right_labelLayer
10
141.8777649
20
123.6555906
40
1.0770071
50
296.4047627
51
301.8007838
0
ARC
8
right_labelLayer
10
141.954992
20
123.5491394
40
0.9458876
50
301.2230286
51
318.6237579
0
ARC
8
right_labelLayer
10
142.1291573
20
123.388255
40
0.7088737
50
319.0765423
51
1.1407261
0
ARC
8
right_labelLayer
10
141.9606067
20
123.4093183
40
0.8773115
50
359.5460364
51
10.9904977
0
ARC
8
right_labelLayer
10
142.2994754
20
123.4782436
40
0.5315264
50
10.6609578
51
30.9361573
0
ARC
8
right_labelLayer
10
142.4069263
20
123.5378758
40
0.4087261
50
31.5094685
51
58.0778638
0
ARC
8
right_labelLayer
10
142.3062248
20
123.3575691
40
0.6150913
50
58.9971018
51
73.858741
0
ARC
8
right_labelLayer
10
142.1026762
20
122.6912156
40
1.3118046
50
73.41
51
81.5907225
0
ARC
8
right_labelLayer
10
141.9302148
20
121.5751525
40
2.4411011
50
81.4172557
51
86.5756907
0
ARC
8
right_labelLayer
10
141.8245318
20
119.8936369
40
4.1259301
50
86.505458
51
90.1399602
0
ARC
8
right_labelLayer
10
141.0278363
20
122.5290163
40
1.4905674
50
89.6435527
51
100.020959
0
ARC
8
right_labelLayer
10
140.9341485
20
123.0386596
40
0.9724034
50
99.8102345
51
116.8230279
0
ARC
8
right_labelLayer
10
140.8428924
20
123.2311029
40
0.7595073
50
117.2304047
51
130.5022488
0
ARC
8
right_labelLayer
10
140.7960369
20
123.2913257
40
0.6832922
50
130.7945068
51
169.0412991
0
ARC
8
right_labelLayer
10
141.1410932
20
123.2100659
40
1.0376006
50
168.2581331
51
180.3819744
0
ARC
8
right_labelLayer
10
141.7207748
20
126.8223746
40
1.2657338
50
179.561802
51
191.6529442
0
ARC
8
right_labelLayer
10
141.2806925
20
126.7272921
40
0.8155281
50
191.3555062
51
213.3660647
0
ARC
8
right_labelLayer
10
141.1750084
20
126.6662689
40
0.6937386
50
213.9574031
51
227.7971491
0
ARC
8
right_labelLayer
10
141.2669566
20
126.7777883
40
0.8381434
50
228.2621025
51
254.7341595
0
ARC
8
right_labelLayer
10
141.3844248
20
127.1804642
40
1.2575613
50
254.4015812
51
267.4349504
0
ARC
8
right_labelLayer
10
141.4150705
20
127.5914453
40
1.6695468
50
267.0155069
51
270.0324334
0
ARC
8
right_labelLayer
10
141.4351069
20
127.3344222
40
1.4126526
50
269.2256533
51
284.3773026
0
ARC
8
right_labelLayer
10
141.6276489
20
126.6636029
40
0.7153109
50
282.7796529
51
346.4828708
0
ARC
8
right_labelLayer
10
141.0519928
20
126.826661
40
1.3133531
50
345.436243
51
0.7465669
0
ARC
8
right_labelLayer
10
140.9710784
20
126.8637123
40
1.3942986
50
359.1806329
51
15.043158
0
ARC
8
right_labelLayer
10
141.6028609
20
127.0480096
40
0.7364662
50
13.9535587
51
77.6674047
0
ARC
8
right_labelLayer
10
141.4215963
20
126.3984384
40
1.4102851
50
76.1094737
51
90.7028428
0
ARC
8
right_labelLayer
10
141.3944641
20
126.4480519
40
1.360601
50
89.5859325
51
101.3334401
0
ARC
8
right_labelLayer
10
141.297232
20
126.911807
40
0.8867912
50
101.0620981
51
121.9739162
0
ARC
8
right_labelLayer
10
141.2288995
20
127.0347339
40
0.7463635
50
122.5211317
51
134.996635
0
ARC
8
right_labelLayer
10
141.2570319
20
127.0178805
40
0.7782136
50
135.5839722
51
163.0015679
0
ARC
8
right_labelLayer
10
141.6680022
20
126.8831815
40
1.2106393
50
162.5912844
51
175.734238
0
ARC
8
right_labelLayer
10
142.1609313
20
126.8346271
40
1.705855
50
175.3394298
51
180.0863963
0
LINE
8
right_labelLayer
10
147.9746094
20
123.9218986
11
147.3261719
21
123.9218986
0
LINE
8
right_labelLayer
10
147.3261719
20
123.9218986
11
147.3261719
21
126.6914298
0
LINE
8
right_labelLayer
10
145.0449219
20
126.1601798
11
145.0449219
21
123.9218986
0
LINE
8
right_labelLayer
10
145.0449219
20
123.9218986
11
144.3964844
21
123.9218986
0
LINE
8
right_labelLayer
10
144.3964844
20
123.9218986
11
144.3964844
21
130.0000236
0
LINE
8
right_labelLayer
10
144.3964844
20
130.0000236
11
145.0449219
21
130.0000236
0
LINE
8
right_labelLayer
10
145.0449219
20
130.0000236
11
145.0449219
21
128.1601798
0
LINE
8
right_labelLayer
10
145.0136719
20
127.6093986
11
145.0527344
21
127.6093986
0
LINE
8
right_labelLayer
10
147.9746094
20
126.7148673
11
147.9746094
21
123.9218986
0
ARC
8
right_labelLayer
10
145.4932282
20
126.7019418
40
1.8329738
50
359.6714116
51
8.6877042
0
ARC
8
right_labelLayer
10
146.1725834
20
126.809682
40
1.1451458
50
8.493155
51
22.6580103
0
ARC
8
right_labelLayer
10
146.5177375
20
126.9531169
40
0.7713754
50
22.7024983
51
42.3419424
0
ARC
8
right_labelLayer
10
146.5565379
20
126.9705721
40
0.7310594
50
43.3790736
51
71.5386351
0
ARC
8
right_labelLayer
10
146.4114556
20
126.5651752
40
1.1615728
50
71.0828095
51
84.36914
0
ARC
8
right_labelLayer
10
146.3463309
20
126.011455
40
1.7190431
50
84.0198401
51
90.1511216
0
ARC
8
right_labelLayer
10
146.3278221
20
125.7682757
40
1.9622664
50
89.5919499
51
100.3595168
0
ARC
8
right_labelLayer
10
146.1888783
20
126.4984504
40
1.2190208
50
100.1068454
51
118.084678
0
ARC
8
right_labelLayer
10
146.0475572
20
126.7757604
40
0.9078518
50
118.4551438
51
139.6706059
0
ARC
8
right_labelLayer
10
146.189434
20
126.6787856
40
1.0789182
50
140.6208301
51
160.5048649
0
ARC
8
right_labelLayer
10
146.937266
20
126.4019398
40
1.8763023
50
160.1566665
51
171.5312911
0
ARC
8
right_labelLayer
10
148.1472742
20
126.2102269
40
3.1013715
50
171.32021
51
178.3407053
0
ARC
8
right_labelLayer
10
149.2300578
20
126.1618511
40
4.1851364
50
178.1079386
51
180.0228804
0
ARC
8
right_labelLayer
10
139.2118341
20
128.1532266
40
5.8330919
50
357.8673888
51
0.0682986
0
ARC
8
right_labelLayer
10
141.1934332
20
128.0776212
40
3.8500523
50
354.9828175
51
357.8943665
0
ARC
8
right_labelLayer
10
142.5020738
20
127.9636625
40
2.5364598
50
351.9713268
51
354.9619354
0
ARC
8
right_labelLayer
10
146.1510772
20
126.9223471
40
1.2955295
50
119.8315857
51
147.9725947
0
ARC
8
right_labelLayer
10
146.307909
20
126.6814407
40
1.5826131
50
116.6657502
51
120.4184807
0
ARC
8
right_labelLayer
10
146.3372443
20
126.6044151
40
1.6646323
50
96.6652566
51
116.3782505
0
ARC
8
right_labelLayer
10
146.4003583
20
126.1689528
40
2.104512
50
89.8927714
51
96.9958816
0
ARC
8
right_labelLayer
10
146.420537
20
125.6427074
40
2.6308038
50
80.6862795
51
90.3536928
0
ARC
8
right_labelLayer
10
146.5843505
20
126.6062231
40
1.6534886
50
65.6022774
51
80.8844335
0
ARC
8
right_labelLayer
10
146.7810531
20
127.049243
40
1.168785
50
46.740139
51
65.4130354
0
ARC
8
right_labelLayer
10
146.7944245
20
127.0914599
40
1.12904
50
19.220441
51
45.7660544
0
ARC
8
right_labelLayer
10
146.1434178
20
126.8501257
40
1.8232576
50
6.4733765
51
19.6468286
0
ARC
8
right_labelLayer
10
145.1706164
20
126.7249231
40
2.8040109
50
359.794525
51
6.7743476
0
LINE
8
right_labelLayer
10
151.2753906
20
124.4570548
11
151.2753906
21
123.9609611
0
LINE
8
right_labelLayer
10
149.3535156
20
125.1523673
11
149.3535156
21
127.6992423
0
LINE
8
right_labelLayer
10
149.3535156
20
127.6992423
11
148.7402344
21
127.6992423
0
LINE
8
right_labelLayer
10
148.7402344
20
127.6992423
11
148.7402344
21
128.0117423
0
LINE
8
right_labelLayer
10
148.7402344
20
128.0117423
11
149.3535156
21
128.2812736
0
LINE
8
right_labelLayer
10
149.3535156
20
128.2812736
11
149.6269531
21
129.1953361
0
LINE
8
right_labelLayer
10
149.6269531
20
129.1953361
11
150.0019531
21
129.1953361
0
LINE
8
right_labelLayer
10
150.0019531
20
129.1953361
11
150.0019531
21
128.2031486
0
LINE
8
right_labelLayer
10
150.0019531
20
128.2031486
11
151.2441406
21
128.2031486
0
LINE
8
right_labelLayer
10
151.2441406
20
128.2031486
11
151.2441406
21
127.6992423
0
LINE
8
right_labelLayer
10
151.2441406
20
127.6992423
11
150.0019531
21
127.6992423
0
LINE
8
right_labelLayer
10
150.0019531
20
127.6992423
11
150.0019531
21
125.1797111
0
ARC
8
right_labelLayer
10
150.6939
20
126.5084819
40
2.1295567
50
269.8803566
51
278.3028372
0
ARC
8
right_labelLayer
10
150.7141243
20
126.3430507
40
1.9629428
50
278.4159963
51
279.0085155
0
ARC
8
right_labelLayer
10
150.4752752
20
127.8690386
40
3.5075086
50
278.9588861
51
280.5104532
0
ARC
8
right_labelLayer
10
150.7029165
20
126.6475816
40
2.2650206
50
280.4849063
51
282.6268378
0
ARC
8
right_labelLayer
10
150.9026901
20
125.7600593
40
1.3552933
50
282.5875512
51
285.5796631
0
ARC
8
right_labelLayer
10
151.0023554
20
125.3933638
40
0.9753063
50
285.7255298
51
286.2571101
0
ARC
8
right_labelLayer
10
151.0027803
20
124.5375442
40
0.6377809
50
287.9886345
51
295.3049279
0
ARC
8
right_labelLayer
10
150.8489458
20
125.0029584
40
1.1279561
50
283.3067989
51
288.1197714
0
ARC
8
right_labelLayer
10
150.6864313
20
125.6808377
40
1.8250419
50
280.0070141
51
283.3735776
0
ARC
8
right_labelLayer
10
150.5773375
20
126.2730538
40
2.4272096
50
279.1866352
51
280.1138398
0
ARC
8
right_labelLayer
10
150.5109504
20
126.6505907
40
2.8105078
50
275.5260029
51
279.2938973
0
ARC
8
right_labelLayer
10
150.5861596
20
125.8650304
40
2.0213561
50
270.8933044
51
275.5483315
0
ARC
8
right_labelLayer
10
150.5956118
20
125.506115
40
1.6623414
50
270.0031482
51
270.7604232
0
ARC
8
right_labelLayer
10
150.5695372
20
125.5371955
40
1.6936241
50
253.7847802
51
270.8852355
0
ARC
8
right_labelLayer
10
150.3688875
20
124.8529045
40
0.9805252
50
190.3817615
51
253.8772309
0
ARC
8
right_labelLayer
10
151.3915939
20
125.1294256
40
2.0382073
50
179.3550751
51
192.8477413
0
ARC
8
right_labelLayer
10
151.3076604
20
125.1715446
40
1.3057328
50
179.6416531
51
189.7506275
0
ARC
8
right_labelLayer
10
150.8467177
20
125.0893295
40
0.8375302
50
189.5479862
51
205.7873385
0
ARC
8
right_labelLayer
10
150.6572898
20
125.0019795
40
0.6289777
50
206.1294917
51
221.4082737
0
ARC
8
right_labelLayer
10
150.6360432
20
124.9858586
40
0.6023828
50
221.5948847
51
262.3505124
0
ARC
8
right_labelLayer
10
150.686558
20
125.2456305
40
0.8667053
50
261.3266934
51
270.1913888
0
LINE
8
bottom_outsideCutPath
10
168.45
20
83.55
11
168.45
21
72.75
0
LINE
8
bottom_outsideCutPath
10
168.45
20
72.75
11
166
21
72.75
0
LINE
8
bottom_outsideCutPath
10
166
20
72.75
11
166
21
59.25
0
LINE
8
bottom_outsideCutPath
10
166
20
59.25
11
168.45
21
59.25
0
LINE
8
bottom_outsideCutPath
10
168.45
20
59.25
11
168.45
21
48.45
0
LINE
8
bottom_outsideCutPath
10
168.45
20
48.45
11
178.75
21
48.45
0
LINE
8
bottom_outsideCutPath
10
178.75
20
48.45
11
178.75
21
46
0
LINE
8
bottom_outsideCutPath
10
178.75
20
46
11
192.25
21
46
0
LINE
8
bottom_outsideCutPath
10
192.25
20
46
11
192.25
21
48.45
0
LINE
8
bottom_outsideCutPath
10
192.25
20
48.45
11
205.75
21
48.45
0
LINE
8
bottom_outsideCutPath
10
205.75
20
48.45
11
205.75
21
46
0
LINE
8
bottom_outsideCutPath
10
205.75
20
46
11
219.25
21
46
0
LINE
8
bottom_outsideCutPath
10
219.25
20
46
11
219.25
21
48.45
0
LINE
8
bottom_outsideCutPath
10
219.25
20
48.45
11
232.75
21
48.45
0
LINE
8
bottom_outsideCutPath
10
232.75
20
48.45
11
232.75
21
46
0
LINE
8
bottom_outsideCutPath
10
232.75
20
46
11
246.25
21
46
0
LINE
8
bottom_outsideCutPath
10
246.25
20
46
11
246.25
21
48.45
0
LINE
8
bottom_outsideCutPath
10
246.25
20
48.45
11
259.75
21
48.45
0
LINE
8
bottom_outsideCutPath
10
259.75
20
48.45
11
259.75
21
46
0
LINE
8
bottom_outsideCutPath
10
259.75
20
46
11
273.25
21
46
0
LINE
8
bottom_outsideCutPath
10
273.25
20
46
11
273.25
21
48.45
0
LINE
8
bottom_outsideCutPath
10
273.25
20
48.45
11
283.55
21
48.45
0
LINE
8
bottom_outsideCutPath
10
283.55
20
48.45
11
283.55
21
59.25
0
LINE
8
bottom_outsideCutPath
10
283.55
20
59.25
11
286
21
59.25
0
LINE
8
bottom_outsideCutPath
10
286
20
59.25
11
286
21
72.75
0
LINE
8
bottom_outsideCutPath
10
286
20
72.75
11
283.55
21
72.75
0
LINE
8
bottom_outsideCutPath
10
283.55
20
72.75
11
283.55
21
83.55
0
LINE
8
bottom_outsideCutPath
10
283.55
20
83.55
11
273.25
21
83.55
0
LINE
8
bottom_outsideCutPath
10
273.25
20
83.55
11
273.25
21
86
0
LINE
8
bottom_outsideCutPath
10
273.25
20
86
11
259.75
21
86
0
LINE
8
bottom_outsideCutPath
10
259.75
20
86
11
259.75
21
83.55
0
LINE
8
bottom_outsideCutPath
10
259.75
20
83.55
11
246.25
21
83.55
0
LINE
8
bottom_outsideCutPath
10
246.25
20
83.55
11
246.25
21
86
0
LINE
8
bottom_outsideCutPath
10
246.25
20
86
11
232.75
21
86
0
LINE
8
bottom_outsideCutPath
10
232.75
20
86
11
232.75
21
83.55
0
LINE
8
bottom_outsideCutPath
10
232.75
20
83.55
11
219.25
21
83.55
0
LINE
8
bottom_outsideCutPath
10
219.25
20
83.55
11
219.25
21
86
0
LINE
8
bottom_outsideCutPath
10
219.25
20
86
11
205.75
21
86
0
LINE
8
bottom_outsideCutPath
10
205.75
20
86
11
205.75
21
83.55
0
LINE
8
bottom_outsideCutPath
10
205.75
20
83.55
11
192.25
21
83.55
0
LINE
8
bottom_outsideCutPath
10
192.25
20
83.55
11
192.25
21
86
0
LINE
8
bottom_outsideCutPath
10
192.25
20
86
11
178.75
21
86
0
LINE
8
bottom_outsideCutPath
10
178.75
20
86
11
178.75
21
83.55
0
LINE
8
bottom_outsideCutPath
10
178.75
20
83.55
11
168.45
21
83.55
0
LINE
8
bottom_labelLayer
10
213.4882623
20
63.5508823
11
213.4413873
21
63.5508823
0
LINE
8
bottom_labelLayer
10
213.4413873
20
63.5508823
11
213.3046685
21
63.0001011
0
LINE
8
bottom_labelLayer
10
213.3046685
20
63.0001011
11
212.8398248
21
63.0001011
0
LINE
8
bottom_labelLayer
10
212.8398248
20
63.0001011
11
212.8398248
21
69.0782261
0
LINE
8
bottom_labelLayer
10
212.8398248
20
69.0782261
11
213.4882623
21
69.0782261
0
LINE
8
bottom_labelLayer
10
213.4882623
20
69.0782261
11
213.4882623
21
67.6016636
0
LINE
8
bottom_labelLayer
10
213.4570123
20
66.7110386
11
213.4882623
21
66.7110386
0
ARC
8
bottom_labelLayer
10
214.8514645
20
65.3699077
40
1.9818513
50
74.2393413
51
90.5623774
0
ARC
8
bottom_labelLayer
10
214.9825112
20
65.8506591
40
1.4835857
50
38.5631327
51
74.0670403
0
ARC
8
bottom_labelLayer
10
214.6452737
20
65.5884364
40
1.9107496
50
16.4708971
51
38.4075537
0
ARC
8
bottom_labelLayer
10
213.6737276
20
65.2837867
40
2.9288516
50
5.1338424
51
16.7973436
0
ARC
8
bottom_labelLayer
10
212.4472583
20
65.1534998
40
4.1621073
50
359.8779296
51
5.4093929
0
ARC
8
bottom_labelLayer
10
212.8074891
20
65.1222018
40
3.8019331
50
350.6562649
51
0.3380337
0
ARC
8
bottom_labelLayer
10
214.1329003
20
64.8967632
40
2.4575166
50
335.8305869
51
350.8254736
0
ARC
8
bottom_labelLayer
10
214.7159253
20
64.6451212
40
1.8225919
50
321.3161666
51
335.5436116
0
ARC
8
bottom_labelLayer
10
214.9388235
20
64.4634939
40
1.5350768
50
274.0640082
51
321.4081008
0
ARC
8
bottom_labelLayer
10
214.8349861
20
65.121211
40
2.1992369
50
269.9225227
51
275.5482146
0
ARC
8
bottom_labelLayer
10
214.8210765
20
64.8887906
40
1.966845
50
255.7755145
51
270.3185693
0
ARC
8
bottom_labelLayer
10
214.764948
20
64.6394224
40
1.711344
50
245.9801605
51
255.5455876
0
ARC
8
bottom_labelLayer
10
214.6562339
20
64.386606
40
1.4361725
50
215.5850185
51
245.8361543
0
ARC
8
bottom_labelLayer
10
199.9684045
20
67.59024
40
13.5198626
50
358.1123591
51
0.048412
0
ARC
8
bottom_labelLayer
10
203.7316107
20
67.4639051
40
9.7545373
50
355.7238583
51
358.1259147
0
ARC
8
bottom_labelLayer
10
205.3731784
20
67.3512976
40
8.1091492
50
355.4714899
51
355.6524466
0
ARC
8
bottom_labelLayer
10
214.6975697
20
65.8677559
40
1.4742965
50
95.1835057
51
145.1108984
0
ARC
8
bottom_labelLayer
10
214.8271534
20
65.1370358
40
2.214633
50
89.8742937
51
96.8145634
0
ARC
8
bottom_labelLayer
10
214.724686
20
64.9865841
40
1.8221613
50
89.573107
51
100.7324142
0
ARC
8
bottom_labelLayer
10
214.5897955
20
65.6680978
40
1.1274631
50
100.446925
51
119.6700673
0
ARC
8
bottom_labelLayer
10
214.4647093
20
65.9019602
40
0.862373
50
120.1402568
51
142.4249471
0
ARC
8
bottom_labelLayer
10
214.6716544
20
65.7650587
40
1.1100121
50
143.3382551
51
161.2559989
0
ARC
8
bottom_labelLayer
10
215.5370603
20
65.457812
40
2.0282918
50
160.8926776
51
171.2333991
0
ARC
8
bottom_labelLayer
10
216.9817122
20
65.2247559
40
3.4916011
50
171.0667686
51
177.8456913
0
ARC
8
bottom_labelLayer
10
218.4843825
20
65.1483366
40
4.9961216
50
177.6177231
51
180.0424808
0
ARC
8
bottom_labelLayer
10
217.7756653
20
65.1278924
40
4.2874357
50
179.7762935
51
185.7075238
0
ARC
8
bottom_labelLayer
10
216.0852749
20
64.9537232
40
2.5881095
50
185.5924992
51
194.2050682
0
ARC
8
bottom_labelLayer
10
215.0024234
20
64.6726847
40
1.4694182
50
193.9429988
51
208.0218941
0
ARC
8
bottom_labelLayer
10
214.5643074
20
64.4498003
40
0.9779924
50
208.5535994
51
217.5605508
0
ARC
8
bottom_labelLayer
10
214.5286195
20
64.434959
40
0.9407079
50
218.1690506
51
253.804688
0
ARC
8
bottom_labelLayer
10
214.7031019
20
64.9729106
40
1.5060788
50
253.1382766
51
266.8483132
0
ARC
8
bottom_labelLayer
10
214.7520295
20
65.5499169
40
2.0849729
50
266.3775678
51
270.0510515
0
ARC
8
bottom_labelLayer
10
214.7677188
20
64.7575241
40
1.2926532
50
269.3869186
51
285.8630994
0
ARC
8
bottom_labelLayer
10
214.8637558
20
64.410437
40
0.9325369
50
286.01627
51
326.8497356
0
ARC
8
bottom_labelLayer
10
214.4002291
20
64.7175053
40
1.4885401
50
326.7105419
51
343.6661341
0
ARC
8
bottom_labelLayer
10
213.5325595
20
64.9826361
40
2.3957764
50
343.4171328
51
353.6369338
0
ARC
8
bottom_labelLayer
10
212.2220476
20
65.1381413
40
3.715461
50
353.4934354
51
0.2205734
0
ARC
8
bottom_labelLayer
10
212.1065085
20
65.1679519
40
3.8310039
50
359.7680788
51
6.3095584
0
ARC
8
bottom_labelLayer
10
213.5495538
20
65.3335517
40
2.3785079
50
6.1648822
51
16.0396485
0
ARC
8
bottom_labelLayer
10
214.4791546
20
65.6075046
40
1.4094168
50
15.7779676
51
32.0151045
0
ARC
8
bottom_labelLayer
10
214.7689739
20
65.7734657
40
1.0757711
50
32.7035531
51
35.5241705
0
ARC
8
bottom_labelLayer
10
214.8750634
20
65.8488681
40
0.9456157
50
35.5408381
51
79.8011355
0
ARC
8
bottom_labelLayer
10
214.7480756
20
65.3090211
40
1.499706
50
78.6781079
51
90.3749176
0
ARC
8
bottom_labelLayer
10
218.0881073
20
65.122052
40
3.3494498
50
349.176205
51
0.3862618
0
ARC
8
bottom_labelLayer
10
219.2157854
20
64.8972492
40
2.1996368
50
330.2507291
51
349.4116178
0
ARC
8
bottom_labelLayer
10
219.5628381
20
64.7168653
40
1.8088837
50
318.1439408
51
329.7566215
0
ARC
8
bottom_labelLayer
10
219.6254698
20
64.6666714
40
1.7287474
50
278.8959168
51
317.9979082
0
ARC
8
bottom_labelLayer
10
219.46408
20
65.4399016
40
2.5179495
50
269.7502874
51
279.8033339
0
ARC
8
bottom_labelLayer
10
219.4379052
20
65.0042352
40
2.0823146
50
253.5437081
51
270.4182617
0
ARC
8
bottom_labelLayer
10
219.3685899
20
64.7361029
40
1.8055549
50
238.8115402
51
253.2428223
0
ARC
8
bottom_labelLayer
10
219.3462191
20
64.6911158
40
1.75549
50
207.7946976
51
238.6757892
0
ARC
8
bottom_labelLayer
10
219.6672647
20
64.8877371
40
2.131318
50
205.6560571
51
208.4461042
0
ARC
8
bottom_labelLayer
10
219.9144748
20
64.990737
40
2.3987931
50
188.9102534
51
205.3171503
0
ARC
8
bottom_labelLayer
10
220.7477286
20
65.1318624
40
3.2438663
50
179.7744475
51
189.0932757
0
ARC
8
bottom_labelLayer
10
220.8706495
20
65.1674366
40
3.3668395
50
169.244295
51
180.3880781
0
ARC
8
bottom_labelLayer
10
219.7272962
20
65.3934362
40
2.2014133
50
150.7111375
51
169.4695455
0
ARC
8
bottom_labelLayer
10
219.3622943
20
65.5808811
40
1.7914348
50
138.1759169
51
150.2287967
0
ARC
8
bottom_labelLayer
10
219.3015899
20
65.6274646
40
1.7151437
50
99.1759282
51
137.9832759
0
ARC
8
bottom_labelLayer
10
219.4686988
20
64.84102
40
2.5184835
50
89.7326625
51
100.0759357
0
ARC
8
bottom_labelLayer
10
219.5020971
20
65.1806694
40
2.1789142
50
73.522285
51
90.5692388
0
ARC
8
bottom_labelLayer
10
219.629877
20
65.6449289
40
1.6975025
50
41.1445754
51
73.2133864
0
ARC
8
bottom_labelLayer
10
219.3859551
20
65.4352817
40
2.0191297
50
13.5014266
51
41.0703424
0
ARC
8
bottom_labelLayer
10
218.4435632
20
65.1886706
40
2.9931193
50
1.1277045
51
13.8799893
0
ARC
8
bottom_labelLayer
10
217.6316371
20
65.145163
40
3.8058441
50
359.9920106
51
1.5420098
0
ARC
8
bottom_labelLayer
10
221.4593709
20
65.1277796
40
3.2836519
50
179.7059385
51
187.9161113
0
ARC
8
bottom_labelLayer
10
220.2550341
20
64.9547748
40
2.0669721
50
187.763898
51
200.0977209
0
ARC
8
bottom_labelLayer
10
219.5915748
20
64.7116814
40
1.3603799
50
200.0845992
51
216.9131419
0
ARC
8
bottom_labelLayer
10
219.3492968
20
64.5386844
40
1.0627889
50
217.3009705
51
261.7098903
0
ARC
8
bottom_labelLayer
10
219.4617693
20
65.0754008
40
1.6104709
50
260.5033629
51
270.2476793
0
ARC
8
bottom_labelLayer
10
219.4832364
20
64.9710358
40
1.5061609
50
269.4481913
51
284.7255253
0
ARC
8
bottom_labelLayer
10
219.6024696
20
64.528832
40
1.0481777
50
284.5662583
51
322.6333624
0
ARC
8
bottom_labelLayer
10
219.3236979
20
64.7302321
40
1.3919989
50
323.0089126
51
342.639051
0
ARC
8
bottom_labelLayer
10
218.5263508
20
64.990829
40
2.2308076
50
342.361548
51
353.7537688
0
ARC
8
bottom_labelLayer
10
217.3499821
20
65.1326234
40
3.4156449
50
353.5363382
51
0.2014441
0
ARC
8
bottom_labelLayer
10
217.5302359
20
65.1611471
40
3.2354122
50
359.7075398
51
7.8972873
0
ARC
8
bottom_labelLayer
10
218.7151223
20
65.3310134
40
2.0384314
50
7.7439685
51
20.0689877
0
ARC
8
bottom_labelLayer
10
219.3753996
20
65.5733086
40
1.3351023
50
20.0257243
51
37.4350725
0
ARC
8
bottom_labelLayer
10
219.5944739
20
65.7287615
40
1.0666986
50
37.9577496
51
80.4006407
0
ARC
8
bottom_labelLayer
10
219.4699815
20
65.1732906
40
1.6354292
50
79.3453495
51
90.3175156
0
ARC
8
bottom_labelLayer
10
219.4469284
20
65.2655565
40
1.5432017
50
89.4805685
51
103.8805164
0
ARC
8
bottom_labelLayer
10
219.3172595
20
65.7593326
40
1.0327642
50
103.4685092
51
142.3119012
0
ARC
8
bottom_labelLayer
10
219.569345
20
65.5820478
40
1.3407088
50
142.9025698
51
162.374992
0
ARC
8
bottom_labelLayer
10
220.3636882
20
65.3173358
40
2.1779473
50
162.06535
51
173.1674484
0
ARC
8
bottom_labelLayer
10
221.602268
20
65.1593656
40
3.4265373
50
173.0086503
51
180.2463589
0
LINE
8
bottom_labelLayer
10
224.5429498
20
63.5352573
11
224.5429498
21
63.0391636
0
LINE
8
bottom_labelLayer
10
222.6210748
20
64.2305698
11
222.6210748
21
66.7774448
0
LINE
8
bottom_labelLayer
10
222.6210748
20
66.7774448
11
222.0077935
21
66.7774448
0
LINE
8
bottom_labelLayer
10
222.0077935
20
66.7774448
11
222.0077935
21
67.0899448
0
LINE
8
bottom_labelLayer
10
222.0077935
20
67.0899448
11
222.6210748
21
67.3594761
0
LINE
8
bottom_labelLayer
10
222.6210748
20
67.3594761
11
222.8945123
21
68.2735386
0
LINE
8
bottom_labelLayer
10
222.8945123
20
68.2735386
11
223.2695123
21
68.2735386
0
LINE
8
bottom_labelLayer
10
223.2695123
20
68.2735386
11
223.2695123
21
67.2813511
0
LINE
8
bottom_labelLayer
10
223.2695123
20
67.2813511
11
224.5116998
21
67.2813511
0
LINE
8
bottom_labelLayer
10
224.5116998
20
67.2813511
11
224.5116998
21
66.7774448
0
LINE
8
bottom_labelLayer
10
224.5116998
20
66.7774448
11
223.2695123
21
66.7774448
0
LINE
8
bottom_labelLayer
10
223.2695123
20
66.7774448
11
223.2695123
21
64.2579136
0
ARC
8
bottom_labelLayer
10
223.9614591
20
65.5866844
40
2.1295567
50
269.8803566
51
278.3028372
0
ARC
8
bottom_labelLayer
10
223.9816834
20
65.4212532
40
1.9629428
50
278.4159963
51
279.0085155
0
ARC
8
bottom_labelLayer
10
223.7428343
20
66.9472411
40
3.5075086
50
278.9588861
51
280.5104532
0
ARC
8
bottom_labelLayer
10
223.9704757
20
65.7257841
40
2.2650206
50
280.4849063
51
282.6268378
0
ARC
8
bottom_labelLayer
10
224.1702493
20
64.8382618
40
1.3552933
50
282.5875512
51
285.5796631
0
ARC
8
bottom_labelLayer
10
224.2699145
20
64.4715663
40
0.9753063
50
285.7255298
51
286.2571101
0
ARC
8
bottom_labelLayer
10
224.2703395
20
63.6157467
40
0.6377809
50
287.9886345
51
295.3049279
0
ARC
8
bottom_labelLayer
10
224.116505
20
64.0811609
40
1.1279561
50
283.3067989
51
288.1197714
0
ARC
8
bottom_labelLayer
10
223.9539904
20
64.7590402
40
1.8250419
50
280.0070141
51
283.3735776
0
ARC
8
bottom_labelLayer
10
223.8448966
20
65.3512563
40
2.4272096
50
279.1866352
51
280.1138398
0
ARC
8
bottom_labelLayer
10
223.7785095
20
65.7287932
40
2.8105078
50
275.5260029
51
279.2938973
0
ARC
8
bottom_labelLayer
10
223.8537188
20
64.9432329
40
2.0213561
50
270.8933044
51
275.5483315
0
ARC
8
bottom_labelLayer
10
223.8631709
20
64.5843175
40
1.6623414
50
270.0031482
51
270.7604232
0
ARC
8
bottom_labelLayer
10
223.8370963
20
64.615398
40
1.6936241
50
253.7847802
51
270.8852355
0
ARC
8
bottom_labelLayer
10
223.6364466
20
63.931107
40
0.9805252
50
190.3817615
51
253.8772309
0
ARC
8
bottom_labelLayer
10
224.6591531
20
64.2076281
40
2.0382073
50
179.3550751
51
192.8477413
0
ARC
8
bottom_labelLayer
10
224.5752195
20
64.2497471
40
1.3057328
50
179.6416531
51
189.7506275
0
ARC
8
bottom_labelLayer
10
224.1142769
20
64.167532
40
0.8375302
50
189.5479862
51
205.7873385
0
ARC
8
bottom_labelLayer
10
223.924849
20
64.080182
40
0.6289777
50
206.1294917
51
221.4082737
0
ARC
8
bottom_labelLayer
10
223.9036024
20
64.0640611
40
0.6023828
50
221.5948847
51
262.3505124
0
ARC
8
bottom_labelLayer
10
223.9541172
20
64.323833
40
0.8667053
50
261.3266934
51
270.1913888
0
LINE
8
bottom_labelLayer
10
227.3671685
20
63.5352573
11
227.3671685
21
63.0391636
0
LINE
8
bottom_labelLayer
10
225.4452935
20
64.2305698
11
225.4452935
21
66.7774448
0
LINE
8
bottom_labelLayer
10
225.4452935
20
66.7774448
11
224.8320123
21
66.7774448
0
LINE
8
bottom_labelLayer
10
224.8320123
20
66.7774448
11
224.8320123
21
67.0899448
0
LINE
8
bottom_labelLayer
10
224.8320123
20
67.0899448
11
225.4452935
21
67.3594761
0
LINE
8
bottom_labelLayer
10
225.4452935
20
67.3594761
11
225.718731
21
68.2735386
0
LINE
8
bottom_labelLayer
10
225.718731
20
68.2735386
11
226.093731
21
68.2735386
0
LINE
8
bottom_labelLayer
10
226.093731
20
68.2735386
11
226.093731
21
67.2813511
0
LINE
8
bottom_labelLayer
10
226.093731
20
67.2813511
11
227.3359185
21
67.2813511
0
LINE
8
bottom_labelLayer
10
227.3359185
20
67.2813511
11
227.3359185
21
66.7774448
0
LINE
8
bottom_labelLayer
10
227.3359185
20
66.7774448
11
226.093731
21
66.7774448
0
LINE
8
bottom_labelLayer
10
226.093731
20
66.7774448
11
226.093731
21
64.2579136
0
ARC
8
bottom_labelLayer
10
226.7856779
20
65.5866844
40
2.1295567
50
269.8803566
51
278.3028372
0
ARC
8
bottom_labelLayer
10
226.8059022
20
65.4212532
40
1.9629428
50
278.4159963
51
279.0085155
0
ARC
8
bottom_labelLayer
10
226.5670531
20
66.9472411
40
3.5075086
50
278.9588861
51
280.5104532
0
ARC
8
bottom_labelLayer
10
226.7946944
20
65.7257841
40
2.2650206
50
280.4849063
51
282.6268378
0
ARC
8
bottom_labelLayer
10
226.994468
20
64.8382618
40
1.3552933
50
282.5875512
51
285.5796631
0
ARC
8
bottom_labelLayer
10
227.0941333
20
64.4715663
40
0.9753063
50
285.7255298
51
286.2571101
0
ARC
8
bottom_labelLayer
10
227.0945583
20
63.6157467
40
0.6377809
50
287.9886345
51
295.3049279
0
ARC
8
bottom_labelLayer
10
226.9407238
20
64.0811609
40
1.1279561
50
283.3067989
51
288.1197714
0
ARC
8
bottom_labelLayer
10
226.7782092
20
64.7590402
40
1.8250419
50
280.0070141
51
283.3735776
0
ARC
8
bottom_labelLayer
10
226.6691154
20
65.3512563
40
2.4272096
50
279.1866352
51
280.1138398
0
ARC
8
bottom_labelLayer
10
226.6027283
20
65.7287932
40
2.8105078
50
275.5260029
51
279.2938973
0
ARC
8
bottom_labelLayer
10
226.6779375
20
64.9432329
40
2.0213561
50
270.8933044
51
275.5483315
0
ARC
8
bottom_labelLayer
10
226.6873897
20
64.5843175
40
1.6623414
50
270.0031482
51
270.7604232
0
ARC
8
bottom_labelLayer
10
226.6613151
20
64.615398
40
1.6936241
50
253.7847802
51
270.8852355
0
ARC
8
bottom_labelLayer
10
226.4606654
20
63.931107
40
0.9805252
50
190.3817615
51
253.8772309
0
ARC
8
bottom_labelLayer
10
227.4833718
20
64.2076281
40
2.0382073
50
179.3550751
51
192.8477413
0
ARC
8
bottom_labelLayer
10
227.3994383
20
64.2497471
40
1.3057328
50
179.6416531
51
189.7506275
0
ARC
8
bottom_labelLayer
10
226.9384956
20
64.167532
40
0.8375302
50
189.5479862
51
205.7873385
0
ARC
8
bottom_labelLayer
10
226.7490677
20
64.080182
40
0.6289777
50
206.1294917
51
221.4082737
0
ARC
8
bottom_labelLayer
10
226.7278211
20
64.0640611
40
0.6023828
50
221.5948847
51
262.3505124
0
ARC
8
bottom_labelLayer
10
226.7783359
20
64.323833
40
0.8667053
50
261.3266934
51
270.1913888
0
ARC
8
bottom_labelLayer
10
228.568576
20
65.122052
40
3.3494498
50
349.176205
51
0.3862618
0
ARC
8
bottom_labelLayer
10
229.6962541
20
64.8972492
40
2.1996368
50
330.2507291
51
349.4116178
0
ARC
8
bottom_labelLayer
10
230.0433068
20
64.7168653
40
1.8088837
50
318.1439408
51
329.7566215
0
ARC
8
bottom_labelLayer
10
230.1059386
20
64.6666714
40
1.7287474
50
278.8959168
51
317.9979082
0
ARC
8
bottom_labelLayer
10
229.9445487
20
65.4399016
40
2.5179495
50
269.7502874
51
279.8033339
0
ARC
8
bottom_labelLayer
10
229.9183739
20
65.0042352
40
2.0823146
50
253.5437081
51
270.4182617
0
ARC
8
bottom_labelLayer
10
229.8490587
20
64.7361029
40
1.8055549
50
238.8115402
51
253.2428223
0
ARC
8
bottom_labelLayer
10
229.8266879
20
64.6911158
40
1.75549
50
207.7946976
51
238.6757892
0
ARC
8
bottom_labelLayer
10
230.1477335
20
64.8877371
40
2.131318
50
205.6560571
51
208.4461042
0
ARC
8
bottom_labelLayer
10
230.3949435
20
64.990737
40
2.3987931
50
188.9102534
51
205.3171503
0
ARC
8
bottom_labelLayer
10
231.2281974
20
65.1318624
40
3.2438663
50
179.7744475
51
189.0932757
0
ARC
8
bottom_labelLayer
10
231.3511183
20
65.1674366
40
3.3668395
50
169.244295
51
180.3880781
0
ARC
8
bottom_labelLayer
10
230.2077649
20
65.3934362
40
2.2014133
50
150.7111375
51
169.4695455
0
ARC
8
bottom_labelLayer
10
229.8427631
20
65.5808811
40
1.7914348
50
138.1759169
51
150.2287967
0
ARC
8
bottom_labelLayer
10
229.7820586
20
65.6274646
40
1.7151437
50
99.1759282
51
137.9832759
0
ARC
8
bottom_labelLayer
10
229.9491675
20
64.84102
40
2.5184835
50
89.7326625
51
100.0759357
0
ARC
8
bottom_labelLayer
10
229.9825659
20
65.1806694
40
2.1789142
50
73.522285
51
90.5692388
0
ARC
8
bottom_labelLayer
10
230.1103458
20
65.6449289
40
1.6975025
50
41.1445754
51
73.2133864
0
ARC
8
bottom_labelLayer
10
229.8664238
20
65.4352817
40
2.0191297
50
13.5014266
51
41.0703424
0
ARC
8
bottom_labelLayer
10
228.9240319
20
65.1886706
40
2.9931193
50
1.1277045
51
13.8799893
0
ARC
8
bottom_labelLayer
10
228.1121058
20
65.145163
40
3.8058441
50
359.9920106
51
1.5420098
0
ARC
8
bottom_labelLayer
10
231.9398396
20
65.1277796
40
3.2836519
50
179.7059385
51
187.9161113
0
ARC
8
bottom_labelLayer
10
230.7355028
20
64.9547748
40
2.0669721
50
187.763898
51
200.0977209
0
ARC
8
bottom_labelLayer
10
230.0720435
20
64.7116814
40
1.3603799
50
200.0845992
51
216.9131419
0
ARC
8
bottom_labelLayer
10
229.8297655
20
64.5386844
40
1.0627889
50
217.3009705
51
261.7098903
0
ARC
8
bottom_labelLayer
10
229.942238
20
65.0754008
40
1.6104709
50
260.5033629
51
270.2476793
0
ARC
8
bottom_labelLayer
10
229.9637052
20
64.9710358
40
1.5061609
50
269.4481913
51
284.7255253
0
ARC
8
bottom_labelLayer
10
230.0829384
20
64.528832
40
1.0481777
50
284.5662583
51
322.6333624
0
ARC
8
bottom_labelLayer
10
229.8041666
20
64.7302321
40
1.3919989
50
323.0089126
51
342.639051
0
ARC
8
bottom_labelLayer
10
229.0068196
20
64.990829
40
2.2308076
50
342.361548
51
353.7537688
0
ARC
8
bottom_labelLayer
10
227.8304508
20
65.1326234
40
3.4156449
50
353.5363382
51
0.2014441
0
ARC
8
bottom_labelLayer
10
228.0107047
20
65.1611471
40
3.2354122
50
359.7075398
51
7.8972873
0
ARC
8
bottom_labelLayer
10
229.1955911
20
65.3310134
40
2.0384314
50
7.7439685
51
20.0689877
0
ARC
8
bottom_labelLayer
10
229.8558683
20
65.5733086
40
1.3351023
50
20.0257243
51
37.4350725
0
ARC
8
bottom_labelLayer
10
230.0749426
20
65.7287615
40
1.0666986
50
37.9577496
51
80.4006407
0
ARC
8
bottom_labelLayer
10
229.9504503
20
65.1732906
40
1.6354292
50
79.3453495
51
90.3175156
0
ARC
8
bottom_labelLayer
10
229.9273971
20
65.2655565
40
1.5432017
50
89.4805685
51
103.8805164
0
ARC
8
bottom_labelLayer
10
229.7977282
20
65.7593326
40
1.0327642
50
103.4685092
51
142.3119012
0
ARC
8
bottom_labelLayer
10
230.0498138
20
65.5820478
40
1.3407088
50
142.9025698
51
162.374992
0
ARC
8
bottom_labelLayer
10
230.844157
20
65.3173358
40
2.1779473
50
162.06535
51
173.1674484
0
ARC
8
bottom_labelLayer
10
232.0827367
20
65.1593656
40
3.4265373
50
173.0086503
51
180.2463589
0
LINE
8
bottom_labelLayer
10
239.1601373
20
63.0001011
11
238.5116998
21
63.0001011
0
LINE
8
bottom_labelLayer
10
238.5116998
20
63.0001011
11
238.5116998
21
65.7852573
0
LINE
8
bottom_labelLayer
10
236.4296685
20
65.3907261
11
236.4296685
21
63.0001011
0
LINE
8
bottom_labelLayer
10
236.4296685
20
63.0001011
11
235.781231
21
63.0001011
0
LINE
8
bottom_labelLayer
10
235.781231
20
63.0001011
11
235.781231
21
65.7852573
0
LINE
8
bottom_labelLayer
10
233.703106
20
65.2461948
11
233.703106
21
63.0001011
0
LINE
8
bottom_labelLayer
10
233.703106
20
63.0001011
11
233.0546685
21
63.0001011
0
LINE
8
bottom_labelLayer
10
233.0546685
20
63.0001011
11
233.0546685
21
67.2813511
0
LINE
8
bottom_labelLayer
10
233.0546685
20
67.2813511
11
233.5820123
21
67.2813511
0
LINE
8
bottom_labelLayer
10
233.5820123
20
67.2813511
11
233.687481
21
66.6954136
0
LINE
8
bottom_labelLayer
10
233.687481
20
66.6954136
11
233.718731
21
66.6954136
0
LINE
8
bottom_labelLayer
10
236.296856
20
66.6329136
11
236.328106
21
66.6329136
0
LINE
8
bottom_labelLayer
10
239.1601373
20
65.7930698
11
239.1601373
21
63.0001011
0
ARC
8
bottom_labelLayer
10
236.5987949
20
65.7954472
40
1.912932
50
359.6947927
51
8.1471545
0
ARC
8
bottom_labelLayer
10
237.3033725
20
65.8997157
40
1.2006936
50
7.986522
51
20.7949197
0
ARC
8
bottom_labelLayer
10
237.6928636
20
66.0489145
40
0.7836068
50
20.7071139
51
40.02178
0
ARC
8
bottom_labelLayer
10
237.7783066
20
66.1048193
40
0.6823313
50
41.0407914
51
73.1792889
0
ARC
8
bottom_labelLayer
10
237.6546701
20
65.7308819
40
1.0760952
50
72.6395152
51
86.2567935
0
ARC
8
bottom_labelLayer
10
237.61506
20
65.3034034
40
1.5052925
50
85.8145872
51
90.0684284
0
ARC
8
bottom_labelLayer
10
237.6005113
20
65.1402056
40
1.6685379
50
89.5621399
51
101.2961324
0
ARC
8
bottom_labelLayer
10
237.474843
20
65.74183
40
1.0539661
50
101.0032495
51
121.7840576
0
ARC
8
bottom_labelLayer
10
237.3793057
20
65.9123926
40
0.8587033
50
122.3597662
51
140.2883814
0
ARC
8
bottom_labelLayer
10
237.5511874
20
65.7863638
40
1.0715268
50
140.9765276
51
161.169977
0
ARC
8
bottom_labelLayer
10
238.1987203
20
65.5559205
40
1.7588058
50
160.8731641
51
172.5272274
0
ARC
8
bottom_labelLayer
10
239.2807203
20
65.4064872
40
2.8510603
50
172.3776187
51
180.1829454
0
ARC
8
bottom_labelLayer
10
240.1188172
20
65.3906194
40
3.6891487
50
179.8949418
51
179.9983428
0
ARC
8
bottom_labelLayer
10
233.8683262
20
65.7954472
40
1.912932
50
359.6947927
51
8.1471545
0
ARC
8
bottom_labelLayer
10
234.5729037
20
65.8997157
40
1.2006936
50
7.986522
51
20.7949197
0
ARC
8
bottom_labelLayer
10
234.9623948
20
66.0489145
40
0.7836068
50
20.7071139
51
40.02178
0
ARC
8
bottom_labelLayer
10
235.0496141
20
66.1060467
40
0.6801858
50
41.0610524
51
72.8993572
0
ARC
8
bottom_labelLayer
10
234.9236368
20
65.7310002
40
1.0757427
50
72.3600768
51
85.9562135
0
ARC
8
bottom_labelLayer
10
234.8809878
20
65.29025
40
1.5184464
50
85.5237275
51
90.0792617
0
ARC
8
bottom_labelLayer
10
234.8664432
20
65.1982178
40
1.6105251
50
89.5572891
51
101.4832365
0
ARC
8
bottom_labelLayer
10
234.7428323
20
65.7773642
40
1.0183796
50
101.1546948
51
123.065517
0
ARC
8
bottom_labelLayer
10
234.658801
20
65.9237421
40
0.8499132
50
123.7019985
51
142.3022596
0
ARC
8
bottom_labelLayer
10
234.8556321
20
65.790208
40
1.0874103
50
143.0769806
51
161.3913504
0
ARC
8
bottom_labelLayer
10
235.6490329
20
65.5099987
40
1.9287874
50
161.0234768
51
171.4468868
0
ARC
8
bottom_labelLayer
10
236.962478
20
65.3042524
40
3.2582349
50
171.3041952
51
178.3501411
0
ARC
8
bottom_labelLayer
10
238.2175435
20
65.2481899
40
4.514438
50
178.0975238
51
180.0253208
0
ARC
8
bottom_labelLayer
10
234.8172714
20
66.049418
40
1.2744023
50
117.1209505
51
149.5423843
0
ARC
8
bottom_labelLayer
10
234.9473359
20
65.8182455
40
1.5394839
50
93.834341
51
117.507224
0
ARC
8
bottom_labelLayer
10
234.983259
20
65.5000724
40
1.8594041
50
89.9661966
51
94.2831787
0
ARC
8
bottom_labelLayer
10
235.004783
20
65.2365876
40
2.1229867
50
77.5572127
51
90.5512987
0
ARC
8
bottom_labelLayer
10
235.2017735
20
66.0838775
40
1.2531922
50
52.7026935
51
78.0053852
0
ARC
8
bottom_labelLayer
10
235.2719578
20
66.2144559
40
1.1070337
50
22.2097954
51
51.4970807
0
ARC
8
bottom_labelLayer
10
237.5027782
20
65.9597069
40
1.3539062
50
119.4041689
51
150.1829004
0
ARC
8
bottom_labelLayer
10
237.6531153
20
65.73104
40
1.6270337
50
118.2585832
51
120.0627893
0
ARC
8
bottom_labelLayer
10
237.6525068
20
65.7146715
40
1.6411843
50
95.8635364
51
117.9693199
0
ARC
8
bottom_labelLayer
10
237.7080519
20
65.3130099
40
2.0464681
50
89.9197421
51
96.2616888
0
ARC
8
bottom_labelLayer
10
237.7258811
20
65.1055214
40
2.2540044
50
79.9360767
51
90.3803458
0
ARC
8
bottom_labelLayer
10
237.8760703
20
65.9189228
40
1.4268851
50
62.9723083
51
80.1665231
0
ARC
8
bottom_labelLayer
10
238.0330715
20
66.2410276
40
1.0686335
50
44.2289917
51
62.6229119
0
ARC
8
bottom_labelLayer
10
237.9863775
20
66.2203999
40
1.1166227
50
19.5611749
51
43.3161487
0
ARC
8
bottom_labelLayer
10
237.3082103
20
65.9656777
40
1.840979
50
7.5041489
51
19.964573
0
ARC
8
bottom_labelLayer
10
236.1860103
20
65.8080851
40
2.9741649
50
359.7107378
51
7.690742
0
ENDSEC
0
EOF